<svg xmlns="http://www.w3.org/2000/svg">
    <symbol id="world" width="62" height="58" viewBox="0 0 62 58" fill="none"
                                xmlns="http://www.w3.org/2000/svg">
                                <path
                                    d="M59.4965 15.1894C59.4965 15.1894 54.9731 14.3829 50.4497 9.94746C45.9263 5.61278 40.2972 4.90713 36.5779 4.70552C32.8587 4.60471 24.1134 4.10068 23.2088 5.20955C22.3041 6.41923 23.0077 7.83052 24.7166 8.33455C26.4254 8.83858 35.4722 9.34262 35.4722 9.34262"
                                    stroke="#D71379" stroke-miterlimit="10" stroke-linecap="round"
                                    stroke-linejoin="round" />
                                <path
                                    d="M59.4942 25.1693H50.95C50.95 25.1693 45.8235 25.7742 43.5115 20.5322C40.7975 14.6855 34.0626 13.4758 35.1684 10.0484C36.2741 6.62095 44.9188 11.7621 48.2359 15.8951"
                                    stroke="#D71379" stroke-miterlimit="10" stroke-linecap="round"
                                    stroke-linejoin="round" />
                                <path
                                    d="M2.5 42.8105C2.5 42.8105 7.0234 43.617 11.5468 48.0525C16.0702 52.3872 21.6993 53.0928 25.4185 53.2944C29.1378 53.496 37.7825 54.0001 38.6872 52.7904C39.5919 51.5807 38.8882 50.1694 37.1794 49.6654C35.4705 49.1614 26.4237 48.6573 26.4237 48.6573"
                                    stroke="#D71379" stroke-miterlimit="10" stroke-linecap="round"
                                    stroke-linejoin="round" />
                                <path
                                    d="M2.5 32.8308H11.0442C11.0442 32.8308 16.1707 32.226 18.4827 37.4679C21.1967 43.3147 27.9315 44.5244 26.8258 47.9518C25.7201 51.3792 17.0754 46.2381 13.7582 42.105"
                                    stroke="#D71379" stroke-miterlimit="10" stroke-linecap="round"
                                    stroke-linejoin="round" />
                                <path
                                    d="M30.8431 40.3907C37.1164 40.3907 42.2019 35.2907 42.2019 28.9995C42.2019 22.7084 37.1164 17.6084 30.8431 17.6084C24.5699 17.6084 19.4844 22.7084 19.4844 28.9995C19.4844 35.2907 24.5699 40.3907 30.8431 40.3907Z"
                                    stroke="#D71379" stroke-miterlimit="10" stroke-linecap="round"
                                    stroke-linejoin="round" />
                                <path d="M30.8438 17.6084V40.2898" stroke="#D71379" stroke-miterlimit="10"
                                    stroke-linecap="round" stroke-linejoin="round" />
                                <path
                                    d="M29.2349 40.189C29.2349 40.189 25.5156 36.9632 25.5156 28.8987C25.5156 20.935 29.2349 17.6084 29.2349 17.6084"
                                    stroke="#D71379" stroke-miterlimit="10" stroke-linecap="round"
                                    stroke-linejoin="round" />
                                <path
                                    d="M32.6562 40.189C32.6562 40.189 36.3755 36.9632 36.3755 28.8987C36.3755 20.935 32.6562 17.6084 32.6562 17.6084"
                                    stroke="#D71379" stroke-miterlimit="10" stroke-linecap="round"
                                    stroke-linejoin="round" />
                                <path d="M19.5859 28.999H42.2029" stroke="#D71379" stroke-miterlimit="10"
                                    stroke-linecap="round" stroke-linejoin="round" />
                                <path
                                    d="M39.6936 36.1568C37.8842 35.1487 35.0697 34.1406 30.8478 34.1406C26.827 34.1406 24.0125 35.0479 22.2031 35.9551"
                                    stroke="#D71379" stroke-miterlimit="10" stroke-linecap="round"
                                    stroke-linejoin="round" />
                                <path
                                    d="M22.2969 22.2451C24.1062 23.2532 26.9208 24.2612 31.1426 24.2612C35.1634 24.2612 37.978 23.354 39.7873 22.4467"
                                    stroke="#D71379" stroke-miterlimit="10" stroke-linecap="round"
                                    stroke-linejoin="round" />
    </symbol>
    <symbol id="collection" width="62" height="58" viewBox="0 0 62 58" fill="none"
                                xmlns="http://www.w3.org/2000/svg">
                                <g clip-path="url(#clip0_618_2276)">
                                    <path
                                        d="M29.4025 23.4002L1.60251 43.4002C-0.597488 45.0002 0.502512 48.4002 3.20251 48.4002H58.4025C61.1025 48.4002 62.2025 45.0002 60.0025 43.4002L32.2025 23.4002C31.4025 22.8002 30.3025 22.8002 29.4025 23.4002Z"
                                        stroke="#D71379" stroke-miterlimit="10" />
                                    <path
                                        d="M26.2031 12.2C27.3031 10.3 29.5031 9.10003 31.9031 9.60003C33.9031 10 35.6031 11.6 36.0031 13.7C36.6031 16.8 34.6031 19.5 31.8031 20.1C31.2031 20.2 30.8031 20.8 30.8031 21.4V23"
                                        stroke="#D71379" stroke-miterlimit="10" stroke-linecap="round"
                                        stroke-linejoin="round" />
                                </g>
                                <defs>
                                    <clipPath id="clip0_618_2276">
                                        <rect width="62" height="58" fill="white" />
                                    </clipPath>
                                </defs>
    </symbol>
    <symbol id="taste" width="62" height="58" viewBox="0 0 62 58" fill="none"
                                xmlns="http://www.w3.org/2000/svg">
                                <path d="M30.5 55.5998L6.5 43.9998L30.5 32.2998L54.5 43.9998L30.5 55.5998Z" fill="white"
                                    stroke="#D71379" stroke-miterlimit="10" stroke-linecap="round"
                                    stroke-linejoin="round" />
                                <path d="M30.5 49.8996L6.5 38.2996L30.5 26.5996L54.5 38.2996L30.5 49.8996Z" fill="white"
                                    stroke="#D71379" stroke-miterlimit="10" stroke-linecap="round"
                                    stroke-linejoin="round" />
                                <path d="M30.5 44.3L6.5 32.6L30.5 21L54.5 32.6L30.5 44.3Z" fill="white" stroke="#D71379"
                                    stroke-miterlimit="10" stroke-linecap="round" stroke-linejoin="round" />
                                <path
                                    d="M30.8 21.4C30.8 21.4 35.6 17.7 35.6 11.5C35.6 5.3 30.8 2.5 30.8 2.5C30.8 2.5 26 5.3 26 11.5C26 17.7 30.8 21.4 30.8 21.4Z"
                                    fill="white" stroke="#D71379" stroke-miterlimit="10" stroke-linecap="round"
                                    stroke-linejoin="round" />
                                <path
                                    d="M30.7969 23.2999C30.7969 23.2999 35.0969 25.8999 39.7969 23.8999C44.4969 21.8999 45.1969 17.3999 45.1969 17.3999C45.1969 17.3999 41.5969 14.5999 36.7969 16.4999C32.0969 18.4999 30.7969 23.2999 30.7969 23.2999Z"
                                    fill="white" stroke="#D71379" stroke-miterlimit="10" stroke-linecap="round"
                                    stroke-linejoin="round" />
                                <path
                                    d="M30.6969 23.2999C30.6969 23.2999 26.3969 25.8999 21.6969 23.8999C16.9969 21.8999 16.2969 17.3999 16.2969 17.3999C16.2969 17.3999 19.8969 14.5999 24.6969 16.4999C29.3969 18.4999 30.6969 23.2999 30.6969 23.2999Z"
                                    fill="white" stroke="#D71379" stroke-miterlimit="10" stroke-linecap="round"
                                    stroke-linejoin="round" />
                                <path d="M30.6953 11.9004V31.6004" stroke="#D71379" stroke-miterlimit="10"
                                    stroke-linecap="round" stroke-linejoin="round" />
                                <path d="M30.7969 23.3L37.7969 20.5" stroke="#D71379" stroke-miterlimit="10"
                                    stroke-linecap="round" stroke-linejoin="round" />
                                <path d="M30.6 23.3L23.5 20.5" stroke="#D71379" stroke-miterlimit="10"
                                    stroke-linecap="round" stroke-linejoin="round" />
    </symbol>
    <symbol id="service" width="62" height="58" viewBox="0 0 62 58" fill="none"
                                xmlns="http://www.w3.org/2000/svg">
                                <path d="M14.9062 20.5004L31.6063 12.4004L48.3063 20.5004L31.6063 28.6004"
                                    fill="white" />
                                <path d="M14.9062 20.5004L31.6063 12.4004L48.3063 20.5004L31.6063 28.6004"
                                    stroke="#D71379" stroke-miterlimit="10" stroke-linecap="round"
                                    stroke-linejoin="round" />
                                <path
                                    d="M30.6018 9L15.6018 16.3C14.9018 16.6 14.4018 17.2 14.2018 17.8C13.9018 18.5 13.9018 19.5 15.0018 20.5L31.7018 28.6C29.2018 26.1 31.7018 24.7 31.7018 24.7L48.4018 16.6"
                                    fill="white" />
                                <path
                                    d="M30.6018 9L15.6018 16.3C14.9018 16.6 14.4018 17.2 14.2018 17.8C13.9018 18.5 13.9018 19.5 15.0018 20.5L31.7018 28.6C29.2018 26.1 31.7018 24.7 31.7018 24.7L48.4018 16.6"
                                    stroke="#D71379" stroke-miterlimit="10" stroke-linecap="round"
                                    stroke-linejoin="round" />
                                <path d="M31.6063 20.7L14.9062 12.6L31.6063 4.5L48.3063 12.6L31.6063 20.7Z" fill="white"
                                    stroke="#D71379" stroke-miterlimit="10" stroke-linecap="round"
                                    stroke-linejoin="round" />
                                <path d="M48.3047 16.6002C48.3047 16.6002 50.7047 14.7002 48.3047 12.7002V16.6002Z"
                                    fill="white" />
                                <path d="M48.3047 16.6002C48.3047 16.6002 50.7047 14.7002 48.3047 12.7002"
                                    stroke="#D71379" stroke-miterlimit="10" stroke-linecap="round"
                                    stroke-linejoin="round" />
                                <path
                                    d="M26.303 54.7003V46.1003C26.303 46.1003 26.903 41.0003 21.703 38.6003C15.803 35.9003 14.603 29.1003 11.203 30.2003C7.80304 31.3003 12.803 40.0003 17.003 43.3003"
                                    stroke="#D71379" stroke-miterlimit="10" stroke-linecap="round"
                                    stroke-linejoin="round" />
                                <path
                                    d="M16.1984 54.7C16.1984 54.7 15.2984 50.2 10.9984 45.6C6.59844 41.1 5.89844 35.3 5.79844 31.6C5.59844 27.9 5.09844 19.1 6.29844 18.2C7.49844 17.2 8.89844 18 9.39844 19.7C9.89844 21.4 10.4984 30.5 10.4984 30.5"
                                    stroke="#D71379" stroke-miterlimit="10" stroke-linecap="round"
                                    stroke-linejoin="round" />
                                <path
                                    d="M36.3961 54.7003V46.1003C36.3961 46.1003 35.7961 41.0003 40.9961 38.6003C46.8961 35.9003 48.0961 29.1003 51.4961 30.2003C54.8961 31.3003 49.7961 40.0003 45.5961 43.4003"
                                    stroke="#D71379" stroke-miterlimit="10" stroke-linecap="round"
                                    stroke-linejoin="round" />
                                <path
                                    d="M46.5 54.7C46.5 54.7 47.4 50.2 51.7 45.6C56.1 41.1 56.8 35.3 56.9 31.6C57.1 27.9 57.6 19.1 56.4 18.2C55.2 17.2 53.8 18 53.3 19.7C52.8 21.4 52.2 30.5 52.2 30.5"
                                    stroke="#D71379" stroke-miterlimit="10" stroke-linecap="round"
                                    stroke-linejoin="round" />
    </symbol>
    <symbol id="limit" width="62" height="58" viewBox="0 0 62 58" fill="none"
                                xmlns="http://www.w3.org/2000/svg">
                                <path
                                    d="M45.7144 56.5004H15.4922V19.3004L20.7268 8.40039H40.3811L45.7144 19.3004V56.5004Z"
                                    stroke="#D71379" stroke-miterlimit="10" />
                                <path
                                    d="M30.6053 16.1004C31.7508 16.1004 32.6794 15.1602 32.6794 14.0004C32.6794 12.8406 31.7508 11.9004 30.6053 11.9004C29.4598 11.9004 28.5312 12.8406 28.5312 14.0004C28.5312 15.1602 29.4598 16.1004 30.6053 16.1004Z"
                                    stroke="#D71379" stroke-miterlimit="10" />
                                <path
                                    d="M30.6016 11.9001C30.6016 12.4001 30.7003 12.8001 30.8979 13.1001C32.1818 14.9001 36.5275 14.0001 40.7744 11.0001C45.0213 8.00012 47.3917 4.20012 46.1077 2.40012C44.8238 0.600119 40.4781 1.50012 36.2312 4.50012C34.5522 5.70012 33.1695 7.00012 32.1818 8.30012"
                                    stroke="#D71379" stroke-miterlimit="10" />
    </symbol>
    <symbol id="shirt" width="62" height="58" viewBox="0 0 62 58" fill="none" xmlns="http://www.w3.org/2000/svg">
        <path d="M31.7 53.8H47.9V21.1L49.8 23.8L57.9 18.3L48.4 4.5H38.4C37.5 7.4 34.8 9.4 31.7 9.4C28.5 9.4 25.9 7.3 25 4.5H15L5.5 18.3L13.6 23.8L15.5 21.1V53.8H31.7Z" stroke="#D71379" stroke-width="0.9867" stroke-miterlimit="10" stroke-linecap="round" stroke-linejoin="round"/>
        <path d="M22.6016 4.5C23.5016 8.7 27.2016 11.9 31.7016 11.9C36.2016 11.9 39.9016 8.7 40.8016 4.5" stroke="#D71379" stroke-width="0.9867" stroke-miterlimit="10" stroke-linecap="round" stroke-linejoin="round"/>
        <path fill-rule="evenodd" clip-rule="evenodd" d="M34.7765 27.4899L35.3446 30.1123H34.2359L34.7765 27.4899ZM39.9801 26.1592H39.6553V26.0624L40.4443 26.0603V26.0624C41.0276 26.0555 41.8 26.0455 41.9782 26.0651L41.9861 27.2159C41.8836 27.2289 41.9039 27.2159 41.8994 27.1032C41.8935 26.9164 41.8566 26.7318 41.79 26.557C41.7067 26.337 41.5985 26.1462 41.3222 26.1471L40.6207 26.154L40.6289 28.9271L41.0434 28.9325C41.3488 28.9307 41.3946 28.6109 41.4212 28.3665C41.4316 28.2697 41.4064 28.2992 41.4619 28.2658C41.5173 28.2878 41.5088 28.2203 41.5094 28.349L41.5128 29.5945C41.5128 29.7226 41.5206 29.6547 41.4658 29.678C41.414 29.6478 41.4428 29.6994 41.4264 29.5963C41.4206 29.5595 41.4209 29.5122 41.4146 29.4715C41.3388 28.9744 41.1343 28.9829 40.6295 29.0193L40.6371 31.7924H40.6925L41.2076 31.7906V31.7951H41.3397C41.6009 31.7951 41.7121 31.6227 41.8 31.3964C42.0039 30.8707 41.8146 30.6998 41.9973 30.7218L42 31.8729C41.9194 31.8823 41.5925 31.8862 41.2079 31.8874L39.6789 31.8922V31.8536V31.8512V31.7957H39.991L39.9801 26.1592ZM33.3996 26.1869H33.3023C33.1302 26.2122 33.0351 26.1142 32.8087 26.5679L32.1176 27.9291C32.0597 28.0436 32.1297 28.1618 32.1727 28.2983L33.2166 31.6321C33.2369 31.6935 33.2603 31.7539 33.2869 31.8129H33.4811C33.7011 31.7936 33.8256 31.7225 33.8838 31.4799C33.9459 31.2224 33.9914 30.9472 34.0414 30.6962L34.9859 26L35.1134 26.003L36.3628 31.8051H36.6873V31.9031L36.001 31.9055C35.9243 31.9055 35.8495 31.9055 35.7776 31.9055H35.3765V31.8084H35.5022C35.5158 31.8084 35.5301 31.8084 35.5443 31.8084H35.7013L35.368 30.2C35.1728 30.1931 34.3644 30.1765 34.2208 30.2139L33.899 31.8144H34.212V31.9124L33.3069 31.9154C33.1908 31.9154 33.0739 31.9154 32.963 31.9154L32.3166 31.9175V31.8175H32.63L31.6809 28.8141C31.6173 28.8707 31.4249 29.2517 31.4194 29.3488L31.4346 31.8205H31.7509V31.9184L30.4574 31.9226V31.8247H30.7855L30.7695 26.1956H30.4437V26.0986L31.7267 26.0943V26.1923H31.4188V29.1037C31.4825 29.0085 32.8263 26.3819 32.9036 26.1875H32.6109V26.0904H33.3993V26.1869H33.3996ZM29.9638 26.198H29.6426L29.6589 31.8259H29.9856V31.9236L28.6875 31.9278V31.8301H29.0172L29.0014 26.2014H28.6814V26.1046L29.8344 26.1007H29.9592H29.9638V26.198ZM25.5798 26.211H25.265V26.1133L26.0588 26.1106V26.1124H26.0819C26.7533 26.11 27.4539 26.0796 27.8524 26.8563C28.0342 27.2087 28.0421 27.9276 27.8802 28.2923C27.7051 28.6875 27.4115 28.9102 26.9503 29.054C27.216 29.193 27.3091 29.1285 27.6272 29.4504C28.1136 29.9423 27.9969 30.5298 27.9975 31.2779C27.9975 31.8651 28.2036 31.7819 28.2702 31.6698C28.329 31.5691 28.2775 31.4967 28.3684 31.4657C28.3987 31.5112 28.3987 31.5492 28.3778 31.6209C28.3568 31.6964 28.3188 31.7661 28.2668 31.8249C28.2147 31.8836 28.1499 31.9298 28.0773 31.96C28.0047 31.9902 27.9261 32.0036 27.8475 31.9992C27.7689 31.9947 27.6923 31.9726 27.6236 31.9344C27.053 31.6046 27.6236 30.3914 27.1664 29.5559C26.9827 29.221 26.747 29.0296 26.231 29.1122L26.2388 31.837L26.2525 31.8389H26.5712V31.9368L25.2753 31.941V31.8416H25.5904L25.5798 26.211ZM24.9716 26.2155H24.8435C24.5453 26.2643 24.515 26.2803 24.3635 26.601C24.1514 27.0444 23.9008 27.4945 23.6796 27.9475C23.619 28.0735 23.6905 28.2067 23.7326 28.3363L24.5895 31.069C24.628 31.1941 24.7832 31.7623 24.8526 31.8431H25.1698V31.941L23.8738 31.9453V31.8476H24.1871L23.2357 28.8334C23.1833 28.8988 22.9839 29.2768 22.9775 29.3759C22.9612 29.6246 22.9793 29.9501 22.9799 30.2073L22.9848 31.8491H23.3123V31.9468L22.0167 31.9501V31.8524H22.3436L22.3273 26.2234L22 26.2243V26.1266L23.153 26.1227H23.2842H23.296V26.22L22.9696 26.2212L22.9781 29.1251L24.465 26.2161H24.1777V26.1206L24.9716 26.1179V26.2146V26.2155ZM38.5099 31.8958L37.2215 31.9V31.8021H37.5491L37.5327 26.1601C37.0094 26.1516 36.7212 26.0567 36.5509 26.7584C36.5258 26.8624 36.507 27.1831 36.4803 27.2367H36.4234L36.4128 26.0862L39.2896 26.069L39.2977 27.2217C39.1559 27.2473 39.2493 27.1686 39.1732 26.8072C39.0217 26.0949 38.7463 26.1194 38.1733 26.161L38.1893 31.7994H38.509V31.8973L38.5099 31.8958ZM26.2294 26.198C26.6812 26.17 26.9297 26.2565 27.1082 26.5597C27.4379 27.1156 27.4379 28.1054 27.1058 28.6591C26.9324 28.9485 26.687 29.0489 26.227 29.0175V26.198H26.2294Z" fill="#D71379"/>
    </symbol>
    <symbol id="mastercard" width="48" height="17" viewBox="0 0 48 17" fill="none" xmlns="http://www.w3.org/2000/svg">
        <path fill-rule="evenodd" clip-rule="evenodd" d="M23.8239 15.086C22.4085 16.2793 20.5724 16.9997 18.566 16.9997C14.0897 16.9997 10.4609 13.4141 10.4609 8.99104C10.4609 4.568 14.0897 0.982422 18.566 0.982422C20.5724 0.982422 22.4085 1.70279 23.8239 2.89606C25.2393 1.70279 27.0754 0.982422 29.0818 0.982422C33.5581 0.982422 37.1869 4.568 37.1869 8.99104C37.1869 13.4141 33.5581 16.9997 29.0818 16.9997C27.0754 16.9997 25.2393 16.2793 23.8239 15.086Z" fill="#ED0006"/>
        <path fill-rule="evenodd" clip-rule="evenodd" d="M23.8203 15.0869C25.5632 13.6179 26.6685 11.432 26.6685 8.99104C26.6685 6.55007 25.5632 4.36415 23.8203 2.89522C25.2356 1.70246 27.0713 0.982422 29.0772 0.982422C33.5535 0.982422 37.1823 4.568 37.1823 8.99104C37.1823 13.4141 33.5535 16.9997 29.0772 16.9997C27.0713 16.9997 25.2356 16.2796 23.8203 15.0869Z" fill="#F9A000"/>
        <path fill-rule="evenodd" clip-rule="evenodd" d="M23.8237 15.0859C25.5661 13.617 26.6708 11.4315 26.6708 8.99096C26.6708 6.55046 25.5661 4.36492 23.8237 2.896C22.0813 4.36492 20.9766 6.55046 20.9766 8.99096C20.9766 11.4315 22.0813 13.617 23.8237 15.0859Z" fill="#FF5E00"/>
    </symbol>
    <symbol id="visa" width="48" height="16" viewBox="0 0 48 16" fill="none" xmlns="http://www.w3.org/2000/svg">
        <path fill-rule="evenodd" clip-rule="evenodd" d="M15.9509 12.9437H13.25L11.2246 4.98969C11.1285 4.6238 10.9244 4.30034 10.6241 4.14789C9.87485 3.76477 9.04917 3.45986 8.14844 3.30609V2.99986H12.4994C13.0998 2.99986 13.5502 3.45986 13.6253 3.99411L14.6761 9.73162L17.3757 2.99986H20.0015L15.9509 12.9437ZM21.5019 12.9439H18.9512L21.0516 3H23.6023L21.5019 12.9439ZM26.9028 5.7546C26.9778 5.21902 27.4282 4.91279 27.9536 4.91279C28.7793 4.83591 29.6787 4.98968 30.4293 5.37148L30.8797 3.23052C30.1291 2.92429 29.3034 2.77051 28.5541 2.77051C26.0784 2.77051 24.2769 4.14788 24.2769 6.0595C24.2769 7.51376 25.553 8.27735 26.4537 8.73736C27.4282 9.19604 27.8035 9.50227 27.7284 9.96095C27.7284 10.649 26.9778 10.9552 26.2285 10.9552C25.3278 10.9552 24.4271 10.7259 23.6027 10.3427L23.1523 12.485C24.0531 12.8668 25.0276 13.0206 25.9283 13.0206C28.7042 13.0962 30.4293 11.7201 30.4293 9.65472C30.4293 7.05375 26.9028 6.9013 26.9028 5.7546ZM39.3576 12.9439L37.3322 3H35.1568C34.7064 3 34.256 3.30623 34.1059 3.76491L30.3555 12.9439H32.9813L33.5054 11.4909H36.7317L37.032 12.9439H39.3576ZM35.5308 5.67773L36.2801 9.42541H34.1797L35.5308 5.67773Z" fill="#172B85"/>
    </symbol>
    <symbol id="belcart" width="48" height="16" viewBox="0 0 48 16" fill="none" xmlns="http://www.w3.org/2000/svg">
        <path d="M17.2516 8.50134C17.2516 9.7363 16.3393 10.6077 15.0634 10.6077C13.8605 10.6077 12.8672 9.82486 12.8672 8.28328V7.5245C12.8672 6.03944 13.5859 4.96025 14.9179 4.71014L16.8858 4.46582V5.25664L15.1035 5.46847C14.2962 5.63002 13.8035 6.1458 13.755 7.21921C14.0616 6.60596 14.6593 6.44264 15.2085 6.44264C16.3878 6.44308 17.2516 7.2744 17.2516 8.50134ZM16.3473 8.49333C16.3473 7.75102 15.8146 7.21832 15.0719 7.21832C14.3211 7.21832 13.7884 7.75102 13.7884 8.49333C13.7884 9.25211 14.3211 9.77635 15.0719 9.77635C15.8146 9.77635 16.3473 9.25166 16.3473 8.49333Z" fill="#002E8D"/>
        <path d="M22.0571 8.74374C22.0602 8.61157 22.0571 8.48518 22.0482 8.36324C21.9454 7.00546 21.0847 6.25781 19.9192 6.25781C18.674 6.25781 17.7812 7.20172 17.7812 8.44513C17.7812 9.75173 18.7136 10.616 19.9841 10.616C20.9232 10.616 21.6699 10.0668 21.9285 9.36144H21.0371C20.8315 9.64003 20.4835 9.84964 19.9917 9.84964C19.3001 9.84964 18.7621 9.39705 18.7056 8.74374H22.0571ZM18.7065 8.04149C18.7541 7.4447 19.261 7.00858 19.9196 7.00858C20.6036 7.00858 21.0851 7.45227 21.1096 8.04149H18.7065Z" fill="#002E8D"/>
        <path d="M22.3674 9.73602C22.6905 9.72 23.0291 9.54243 23.0291 8.87266V6.34668H26.3175V10.5353H25.4052V7.16998H23.9259V8.88913C23.9259 10.0511 23.2396 10.5758 22.3594 10.5598L22.3674 9.73602Z" fill="#002E8D"/>
        <path d="M28.8121 8.29938L30.8196 6.3457H29.7569L28.647 7.42312L28.0221 8.02969V6.3457H28.0079H27.1632H27.1094V10.5343H27.1632H28.0079H28.0221V8.56996L28.6372 9.26198L29.7653 10.5343H30.8271L28.8121 8.29938Z" fill="#002E8D"/>
        <path d="M34.4708 6.34174L34.36 6.96389C34.0004 6.5242 33.3822 6.26074 32.826 6.26074C32.8193 6.26074 32.8135 6.26163 32.8068 6.26163C32.797 6.26163 32.7877 6.26074 32.7775 6.26074C32.1727 6.26074 31.6805 6.48192 31.328 6.84195C31.3111 6.85886 31.2933 6.87577 31.2768 6.89313C31.267 6.90381 31.2577 6.91582 31.2483 6.92695C30.9088 7.31101 30.7188 7.83392 30.7188 8.43159C30.7188 8.43426 30.7192 8.43693 30.7192 8.4396C30.7192 8.44227 30.7188 8.44494 30.7188 8.44761C30.7188 9.04529 30.9088 9.56864 31.2483 9.95226C31.2581 9.96338 31.267 9.97495 31.2768 9.98608C31.2933 10.0039 31.3111 10.0203 31.328 10.0373C31.6805 10.3973 32.1727 10.6185 32.7775 10.6185C32.7872 10.6185 32.797 10.6176 32.8068 10.6176C32.8135 10.6176 32.8193 10.6185 32.826 10.6185C33.3822 10.6185 34.0004 10.355 34.36 9.91532V10.5375H35.2883V10.5295V6.35019V6.34218H34.4708V6.34174ZM33.0115 9.78003C32.2203 9.78003 31.6551 9.2233 31.6551 8.44049C31.6551 7.65769 32.2203 7.10096 33.0115 7.10096C33.7948 7.10096 34.352 7.68216 34.352 8.44049C34.352 9.19882 33.7948 9.78003 33.0115 9.78003Z" fill="#002E8D"/>
        <path d="M36.0703 6.34227V6.35028V12.4165V12.4245H36.9986V9.9163C37.3582 10.356 37.9764 10.6194 38.5327 10.6194C38.5393 10.6194 38.5451 10.6186 38.5518 10.6186C38.5616 10.6186 38.5709 10.6194 38.5812 10.6194C39.186 10.6194 39.6782 10.3983 40.0306 10.0382C40.0475 10.0213 40.0653 10.0044 40.0818 9.98706C40.0916 9.97638 40.1009 9.96436 40.1103 9.95323C40.4498 9.56917 40.6399 9.04626 40.6399 8.44859C40.6399 8.44592 40.6394 8.44325 40.6394 8.44058C40.6394 8.43791 40.6399 8.43524 40.6399 8.43257C40.6399 7.8349 40.4498 7.31154 40.1103 6.92793C40.1005 6.9168 40.0916 6.90523 40.0818 6.8941C40.0653 6.8763 40.0475 6.85984 40.0306 6.84293C39.6782 6.4829 39.186 6.26172 38.5812 6.26172C38.5714 6.26172 38.5616 6.26261 38.5518 6.26261C38.5451 6.26261 38.5393 6.26172 38.5327 6.26172C37.9764 6.26172 37.3582 6.52518 36.9986 6.96486L36.8878 6.34271H36.0703V6.34227ZM37.0071 8.44058C37.0071 7.68181 37.5643 7.10104 38.3475 7.10104C39.1388 7.10104 39.704 7.65777 39.704 8.44058C39.704 9.22339 39.1388 9.78012 38.3475 9.78012C37.5643 9.78056 37.0071 9.19935 37.0071 8.44058Z" fill="#002E8D"/>
        <path d="M47.5533 7.92222V10.5403H46.6317V8.15631C46.6317 7.39664 46.2436 7.05708 45.7261 7.05708C45.1925 7.05708 44.7884 7.41266 44.7884 8.15631V10.5403H43.8667V8.15631C43.8667 7.39664 43.4707 7.05708 42.9691 7.05708C42.4275 7.05708 42.0234 7.41266 42.0234 8.15631V10.5403H41.0938V6.34637H41.9046L42.0096 6.95117C42.2522 6.52305 42.654 6.25781 43.2766 6.25781C43.8423 6.25781 44.306 6.49056 44.5565 6.95117C44.8315 6.52305 45.2895 6.25781 45.9686 6.25781C46.9147 6.25737 47.5533 6.89598 47.5533 7.92222Z" fill="#002E8D"/>
        <path d="M4.61375 10.9072L2.97649 12.5129C2.86656 12.6205 2.86834 12.7585 2.90617 12.852C2.944 12.9454 3.03968 13.0451 3.19322 13.0456L6.07433 13.0549C6.29596 13.0558 6.47975 12.876 6.48376 12.6539C6.48376 12.6424 6.4842 12.6303 6.4842 12.6183C6.48598 11.9873 6.23543 11.3696 5.79352 10.9188C5.47087 10.5903 4.94218 10.585 4.61375 10.9072Z" fill="#32A8FF"/>
        <path d="M2.73242 9.68633L0.439181 9.66408C0.285646 9.66274 0.189075 9.76109 0.149912 9.8541C0.11075 9.94711 0.107634 10.0851 0.215776 10.1941L2.24644 12.2377C2.40265 12.3948 2.65988 12.3974 2.8192 12.2439C2.82765 12.2359 2.83611 12.2274 2.84456 12.219C3.29226 11.774 3.55171 11.1603 3.55794 10.5288C3.56239 10.0686 3.19213 9.69078 2.73242 9.68633Z" fill="#32A8FF"/>
        <path d="M0.518162 9.3632C0.530178 9.3632 0.541748 9.36364 0.553764 9.36364C1.18482 9.36542 1.80252 9.11487 2.25333 8.67296C2.58176 8.3512 2.58666 7.82206 2.2649 7.49363L0.659236 5.85637C0.551539 5.74645 0.41358 5.74823 0.320124 5.78605C0.226668 5.82388 0.126981 5.91956 0.126536 6.0731L0.117191 8.95377C0.116301 9.17539 0.296092 9.35919 0.518162 9.3632Z" fill="#32A8FF"/>
        <path d="M0.950817 5.72542C1.39585 6.17312 2.00954 6.43257 2.64104 6.4388C3.10075 6.44325 3.47858 6.07299 3.48303 5.61327L3.50528 3.32004C3.50662 3.16651 3.40827 3.06993 3.31526 3.03077C3.22224 2.99161 3.08429 2.98849 2.97525 3.09664L0.932125 5.1273C0.77503 5.28351 0.77236 5.54074 0.925895 5.70006C0.934351 5.70851 0.942361 5.71697 0.950817 5.72542Z" fill="#32A8FF"/>
        <path d="M5.67471 5.14771L7.31197 3.54205C7.42189 3.43435 7.42011 3.29639 7.38228 3.20294C7.34446 3.10948 7.24878 3.00979 7.09524 3.00935L4.21457 3C3.99294 2.99911 3.80915 3.1789 3.80514 3.40097C3.80514 3.41299 3.8047 3.42456 3.8047 3.43658C3.80292 4.06763 4.05347 4.68533 4.49538 5.13614C4.81758 5.46457 5.34672 5.46947 5.67471 5.14771Z" fill="#32A8FF"/>
        <path d="M7.55995 6.36824L9.85319 6.39049C10.0067 6.39183 10.1033 6.29348 10.1425 6.20047C10.1816 6.10746 10.1847 5.9695 10.0766 5.86046L8.04592 3.81689C7.88972 3.6598 7.63249 3.65713 7.47317 3.81066C7.46472 3.81867 7.45626 3.82713 7.4478 3.83558C7.00011 4.28061 6.74065 4.89431 6.73442 5.5258C6.72953 5.98641 7.10024 6.36379 7.55995 6.36824Z" fill="#32A8FF"/>
        <path d="M9.77387 6.69186C9.76186 6.69186 9.75029 6.69142 9.73827 6.69142C9.10722 6.68964 8.48952 6.94019 8.03871 7.3821C7.71028 7.70386 7.70538 8.233 8.02714 8.56143L9.6328 10.1987C9.7405 10.3086 9.87846 10.3068 9.97191 10.269C10.0654 10.2312 10.1651 10.1355 10.1655 9.98196L10.1748 7.10084C10.1753 6.87966 9.9955 6.69587 9.77387 6.69186Z" fill="#32A8FF"/>
        <path d="M9.33573 10.3296C8.8907 9.88193 8.27701 9.62248 7.64551 9.61625C7.18579 9.6118 6.80797 9.98206 6.80351 10.4418L6.78126 12.735C6.77993 12.8885 6.87828 12.9851 6.97129 13.0243C7.0643 13.0634 7.20226 13.0666 7.31129 12.9584L9.35487 10.9278C9.51196 10.7715 9.51463 10.5143 9.3611 10.355C9.35264 10.3465 9.34418 10.3376 9.33573 10.3296Z" fill="#32A8FF"/>
    </symbol>
    <symbol id="pay" width="48" height="16" viewBox="0 0 48 16" fill="none" xmlns="http://www.w3.org/2000/svg">
        <path fill-rule="evenodd" clip-rule="evenodd" d="M14.2905 3.30376C13.9306 3.73258 13.3548 4.0708 12.7789 4.02248C12.7069 3.44267 12.9888 2.82662 13.3188 2.44612C13.6787 2.00522 14.3085 1.69115 14.8184 1.66699C14.8784 2.27096 14.6444 2.86286 14.2905 3.30376ZM14.8126 4.13693C14.3053 4.10753 13.8424 4.29055 13.4685 4.43838C13.2278 4.53351 13.0241 4.61407 12.8691 4.61407C12.6951 4.61407 12.483 4.5292 12.2447 4.43391C11.9326 4.30906 11.5757 4.16632 11.2015 4.17317C10.3437 4.18525 9.54594 4.67446 9.10806 5.45359C8.20829 7.01183 8.87412 9.319 9.74389 10.5873C10.1698 11.2155 10.6796 11.904 11.3515 11.8798C11.647 11.8686 11.8596 11.7778 12.0797 11.6838C12.333 11.5755 12.5961 11.4631 13.007 11.4631C13.4037 11.4631 13.6553 11.5726 13.8969 11.6777C14.1266 11.7777 14.3472 11.8737 14.6746 11.8678C15.3704 11.8557 15.8083 11.2396 16.2342 10.6115C16.6938 9.93735 16.8958 9.27942 16.9264 9.17956L16.93 9.16801C16.9293 9.16727 16.9236 9.16465 16.9136 9.16004C16.76 9.08922 15.5856 8.54792 15.5744 7.09639C15.5631 5.87804 16.5058 5.26075 16.6542 5.16358C16.6632 5.15767 16.6693 5.15368 16.6721 5.1516C16.0722 4.25772 15.1365 4.16109 14.8126 4.13693ZM19.6289 11.8017V2.38574H23.138C24.9495 2.38574 26.2152 3.642 26.2152 5.47808C26.2152 7.31415 24.9255 8.58249 23.09 8.58249H21.0805V11.8017H19.6289ZM21.0801 3.61816H22.7536C24.0133 3.61816 24.7331 4.29461 24.7331 5.48444C24.7331 6.67426 24.0133 7.35675 22.7476 7.35675H21.0801V3.61816ZM31.009 10.672C30.6251 11.4088 29.7793 11.8739 28.8676 11.8739C27.5179 11.8739 26.5762 11.0645 26.5762 9.84452C26.5762 8.63658 27.4879 7.94202 29.1735 7.83934L30.985 7.73063V7.21121C30.985 6.44417 30.4872 6.02743 29.5994 6.02743C28.8676 6.02743 28.3337 6.40793 28.2257 6.98774H26.9181C26.9601 5.76772 28.0998 4.87988 29.6414 4.87988C31.3029 4.87988 32.3827 5.75564 32.3827 7.11458V11.8014H31.039V10.672H31.009ZM29.2559 10.7563C28.4821 10.7563 27.9902 10.3818 27.9902 9.80803C27.9902 9.21614 28.4641 8.87188 29.3699 8.81752L30.9835 8.71484V9.24634C30.9835 10.1281 30.2396 10.7563 29.2559 10.7563ZM36.8403 12.17C36.2584 13.8189 35.5926 14.3625 34.1769 14.3625C34.069 14.3625 33.7091 14.3504 33.6251 14.3262V13.1968C33.7151 13.2089 33.937 13.221 34.051 13.221C34.6928 13.221 35.0527 12.9492 35.2747 12.2425L35.4066 11.8258L32.9473 4.9707H34.4649L36.1744 10.5333H36.2044L37.914 4.9707H39.3896L36.8403 12.17Z" fill="#1D1D1B"/>
    </symbol>
    <symbol id="bepaid" width="48" height="16" viewBox="0 0 48 16" fill="none" xmlns="http://www.w3.org/2000/svg">
        <mask id="mask0_618_2016" style="mask-type:luminance" maskUnits="userSpaceOnUse" x="1" y="2" width="46" height="12">
        <path d="M1.27344 2.13385H46.4245V13.8672H1.27344V2.13385Z" fill="white"/>
        </mask>
        <g mask="url(#mask0_618_2016)">
        <path d="M3.83801 10.0285C3.83801 10.1728 3.85228 10.3178 3.88144 10.448C4.06945 11.1567 4.69173 11.6913 5.45848 11.6913C6.57317 11.6913 7.25305 10.7948 7.25305 9.37725C7.25305 8.13396 6.65968 7.12138 5.47338 7.12138C4.75006 7.12138 4.09835 7.64188 3.8958 8.42314C3.86718 8.5532 3.83801 8.71251 3.83801 8.88589V10.0285ZM2 12.9355C2.02917 12.4582 2.05834 11.6772 2.05834 10.9542V2.66659H3.83801V6.86117H3.86718C4.30117 6.1809 5.06801 5.73278 6.12428 5.73278C7.84625 5.73278 9.07616 7.1647 9.06208 9.3054C9.06208 11.8363 7.45569 13.0947 5.86394 13.0947C4.95189 13.0947 4.14188 12.7478 3.63537 11.8797H3.60629L3.51933 12.9355H2Z" fill="#F27421"/>
        <path d="M15.3901 8.66925C15.4049 8.01814 15.1154 6.94824 13.9284 6.94824C12.8288 6.94824 12.3656 7.94557 12.2937 8.66925H15.3901ZM12.2937 9.91271C12.3372 11.1853 13.3352 11.7349 14.464 11.7349C15.2891 11.7349 15.8822 11.6196 16.4177 11.4171L16.6783 12.6463C16.07 12.8923 15.2307 13.0801 14.2179 13.0801C11.9316 13.0801 10.5859 11.6774 10.5859 9.52235C10.5859 7.56947 11.7722 5.73294 14.0301 5.73294C16.3162 5.73294 17.0687 7.61343 17.0687 9.1606C17.0687 9.4932 17.0396 9.75359 17.0111 9.91271H12.2937Z" fill="#F27421"/>
        <path d="M20.8515 7.8588C21.0685 7.91711 21.3579 7.93137 21.7201 7.93137C23.0516 7.93137 23.8617 7.28071 23.8617 6.13779C23.8617 5.05336 23.109 4.47455 21.8792 4.47455C21.3871 4.47455 21.0399 4.51787 20.8515 4.56129V7.8588ZM19.0859 3.31728C19.7233 3.20202 20.606 3.11529 21.8068 3.11529C23.109 3.11529 24.0642 3.38967 24.686 3.9109C25.2651 4.3879 25.6414 5.15454 25.6414 6.06568C25.6414 6.99135 25.3518 7.75781 24.8021 8.27823C24.093 8.98701 22.979 9.3196 21.7201 9.3196C21.3871 9.3196 21.0832 9.30543 20.8515 9.2622V12.9355H19.0859V3.31728Z" fill="#231F20"/>
        <path d="M31.0376 9.49304C29.7788 9.46452 28.5779 9.73899 28.5779 10.8092C28.5779 11.5036 29.0267 11.8222 29.5908 11.8222C30.3 11.8222 30.8207 11.3592 30.98 10.8526C31.0234 10.7224 31.0376 10.578 31.0376 10.4622V9.49304ZM31.2696 12.9355L31.1537 12.1543H31.1101C30.6763 12.7038 29.938 13.0947 29.0267 13.0947C27.6085 13.0947 26.8125 12.0676 26.8125 10.9974C26.8125 9.21848 28.3894 8.32152 30.9944 8.33632V8.22043C30.9944 7.75768 30.8064 6.99132 29.5616 6.99132C28.8674 6.99132 28.1441 7.20811 27.6661 7.51183L27.3189 6.35501C27.8398 6.03649 28.7516 5.73278 29.8659 5.73278C32.1232 5.73278 32.7746 7.1647 32.7746 8.69752V11.2435C32.7746 11.8797 32.8032 12.5017 32.8757 12.9355H31.2696Z" fill="#231F20"/>
        <path d="M35.1719 5.89212H36.9659V12.9355H35.1719V5.89212ZM37.0675 3.92498C37.0675 4.46047 36.6764 4.8798 36.0546 4.8798C35.4615 4.8798 35.0703 4.46047 35.0703 3.92498C35.0703 3.37559 35.4757 2.95608 36.069 2.95608C36.6764 2.95608 37.0527 3.37559 37.0675 3.92498Z" fill="#231F20"/>
        <path d="M44.0959 8.82767C44.0959 8.68326 44.0811 8.50988 44.0526 8.36493C43.8932 7.67086 43.3291 7.10657 42.5183 7.10657C41.3753 7.10657 40.7386 8.11943 40.7386 9.43546C40.7386 10.7224 41.3753 11.6628 42.504 11.6628C43.2275 11.6628 43.8643 11.1708 44.0375 10.4045C44.0811 10.2454 44.0959 10.0719 44.0959 9.88349V8.82767ZM45.8757 2.66659V10.9543C45.8757 11.6772 45.9047 12.4583 45.9333 12.9355H44.342L44.2694 11.8222H44.2405C43.8207 12.6029 42.9672 13.0947 41.9398 13.0947C40.2614 13.0947 38.9298 11.6628 38.9298 9.49304C38.9155 7.13573 40.3914 5.73278 42.0845 5.73278C43.0539 5.73278 43.7486 6.13767 44.0668 6.65854H44.0959V2.66659H45.8757Z" fill="#231F20"/>
        </g>
    </symbol>
    <symbol id="securecode" width="48" height="16" viewBox="0 0 48 16" fill="none" xmlns="http://www.w3.org/2000/svg">
        <path d="M8.60202 9.97012C8.42337 9.83613 8.20005 9.7468 7.97672 9.70213C7.7534 9.61281 7.53008 9.61281 7.30676 9.61281C7.17277 9.61281 7.03878 9.61281 6.90479 9.65747C6.77079 9.70214 6.68146 9.7468 6.59214 9.79146C6.50281 9.83613 6.41348 9.92546 6.36881 10.0148C6.32415 10.1041 6.27949 10.1934 6.27949 10.2828C6.27949 10.3721 6.27949 10.4614 6.32415 10.5061C6.36881 10.5508 6.41348 10.6401 6.50281 10.6847C6.59214 10.7294 6.68146 10.7741 6.81546 10.8187C6.94945 10.8634 7.08344 10.8634 7.21743 10.9081L7.53008 10.9527C7.70874 10.9974 7.8874 10.9974 8.06605 11.0867C8.24471 11.1314 8.3787 11.2207 8.5127 11.31C8.64669 11.3994 8.78068 11.5334 8.82534 11.6674C8.91467 11.8014 8.95934 11.98 8.95934 12.2033C8.95934 12.4266 8.91467 12.65 8.82534 12.8286C8.73602 13.0073 8.60202 13.1413 8.42337 13.2753C8.24471 13.4093 8.06605 13.4986 7.84273 13.5433C7.61941 13.5879 7.39609 13.6326 7.12811 13.6326C6.99411 13.6326 6.81546 13.6326 6.6368 13.5879C6.45814 13.5433 6.32415 13.5433 6.14549 13.4539C5.96684 13.4093 5.83284 13.3199 5.69885 13.2753C5.56486 13.1859 5.43087 13.0966 5.29688 13.0073L5.69885 12.4266C5.78818 12.516 5.87751 12.5606 5.96684 12.6053C6.05617 12.65 6.19016 12.7393 6.32415 12.784C6.45814 12.8286 6.59214 12.8733 6.72613 12.8733C6.86012 12.918 6.99411 12.918 7.12811 12.918C7.2621 12.918 7.39609 12.918 7.53008 12.8733C7.66408 12.8286 7.7534 12.784 7.84273 12.7393C7.93206 12.6946 8.02139 12.6053 8.06605 12.516C8.11072 12.4266 8.15538 12.3373 8.15538 12.248C8.15538 12.0693 8.06605 11.9353 7.8874 11.846C7.70874 11.7567 7.44075 11.6674 7.12811 11.6227L6.90479 11.578C6.72613 11.5334 6.59214 11.5334 6.41348 11.444C6.23482 11.3994 6.10083 11.31 5.96684 11.2207C5.83284 11.1314 5.74352 10.9974 5.65419 10.8634C5.56486 10.7294 5.5202 10.5508 5.5202 10.3274C5.5202 10.1041 5.56486 9.88079 5.65419 9.7468C5.74352 9.56814 5.87751 9.43415 6.05617 9.30016C6.23482 9.16616 6.41348 9.07684 6.6368 9.03217C6.86012 8.98751 7.08344 8.94284 7.30676 8.94284C7.61941 8.94284 7.93206 8.98751 8.20005 9.07684C8.46803 9.16616 8.69135 9.30016 8.95934 9.43415L8.60202 9.97012ZM11.1032 10.3274C11.3265 10.3274 11.5052 10.3721 11.6838 10.4614C11.8625 10.5508 11.9965 10.6401 12.1305 10.7741C12.2645 10.9081 12.3538 11.0867 12.4431 11.2654C12.5325 11.444 12.5325 11.6674 12.5325 11.9353C12.5325 11.98 12.5325 12.0247 12.5325 12.0693C12.5325 12.114 12.5325 12.1587 12.5325 12.2033H10.2546C10.2546 12.3373 10.2993 12.4713 10.3886 12.5606C10.4333 12.65 10.5226 12.7393 10.6119 12.784C10.7012 12.8286 10.7906 12.8733 10.8799 12.918C10.9692 12.9626 11.1032 12.9626 11.1925 12.9626C11.3265 12.9626 11.5052 12.918 11.6392 12.8733C11.7732 12.8286 11.9518 12.7393 12.0858 12.65L12.4431 13.1413C12.2645 13.3199 12.0412 13.4093 11.8625 13.4986C11.6392 13.5433 11.4159 13.5879 11.1925 13.5879C10.9692 13.5879 10.7459 13.5433 10.5672 13.4539C10.3886 13.3646 10.2099 13.2753 10.0759 13.1413C9.94195 13.0073 9.80796 12.8286 9.76329 12.65C9.67396 12.4713 9.6293 12.248 9.6293 11.98C9.6293 11.7567 9.67396 11.5334 9.76329 11.31C9.85262 11.1314 9.94195 10.9527 10.0759 10.7741C10.2099 10.6401 10.3886 10.5061 10.5672 10.4614C10.6566 10.3721 10.8352 10.3274 11.1032 10.3274ZM11.0586 10.9527C10.9246 10.9527 10.8352 10.9527 10.7459 10.9974C10.6566 11.0421 10.5672 11.0867 10.5226 11.1761C10.4333 11.2654 10.3886 11.31 10.3439 11.3994C10.2993 11.4887 10.2546 11.578 10.2546 11.712H11.8625C11.8178 11.4887 11.7285 11.2654 11.5945 11.1314C11.4605 10.9974 11.2819 10.9527 11.0586 10.9527ZM14.6317 10.3274C14.855 10.3274 15.0783 10.3721 15.257 10.4614C15.4356 10.5508 15.6143 10.6847 15.7483 10.8187L15.3016 11.2654C15.2123 11.1761 15.0783 11.0867 14.9443 11.0421C14.8103 10.9974 14.6763 10.9527 14.5424 10.9527C14.4084 10.9527 14.2744 10.9974 14.185 11.0421C14.0511 11.0867 13.9617 11.1761 13.9171 11.2654C13.8277 11.3547 13.7831 11.444 13.7384 11.578C13.6937 11.712 13.6491 11.846 13.6491 11.98C13.6491 12.114 13.6937 12.248 13.7384 12.382C13.7831 12.516 13.8277 12.6053 13.9171 12.6946C14.0064 12.784 14.0957 12.8286 14.185 12.918C14.2744 12.9626 14.4084 13.0073 14.5424 13.0073C14.6763 13.0073 14.8103 12.9626 14.9443 12.918C15.0783 12.8733 15.1677 12.784 15.3016 12.6946L15.7036 13.1413C15.5696 13.3199 15.391 13.4093 15.2123 13.4986C15.0337 13.5879 14.8103 13.6326 14.587 13.6326C14.3637 13.6326 14.1404 13.5879 13.9171 13.4986C13.7384 13.4093 13.5597 13.3199 13.4258 13.1413C13.2918 13.0073 13.1578 12.8286 13.1131 12.6053C13.0238 12.4266 12.9791 12.2033 12.9791 11.98C12.9791 11.7567 13.0238 11.5334 13.1131 11.3547C13.2024 11.1761 13.2918 10.9974 13.4258 10.8187C13.5597 10.6847 13.7384 10.5508 13.9171 10.4614C14.185 10.3721 14.4084 10.3274 14.6317 10.3274ZM19.2768 12.2033C19.2768 12.4266 19.2321 12.65 19.1428 12.8286C19.0534 13.0073 18.9641 13.1413 18.8301 13.2753C18.6961 13.4093 18.5621 13.4539 18.3835 13.5433C18.2048 13.5879 18.0262 13.6326 17.8475 13.6326C17.6688 13.6326 17.4902 13.5879 17.3115 13.5433C17.1329 13.4986 16.9989 13.4093 16.8649 13.2753C16.7309 13.1859 16.6416 13.0073 16.5522 12.8286C16.4629 12.65 16.4183 12.4266 16.4183 12.2033V10.4168H17.0882V12.114C17.0882 12.248 17.0882 12.382 17.1329 12.4713C17.1775 12.5606 17.2222 12.65 17.3115 12.7393C17.4009 12.784 17.4455 12.8286 17.5349 12.8733C17.6242 12.918 17.7135 12.918 17.8475 12.918C17.9368 12.918 18.0708 12.918 18.1602 12.8733C18.2495 12.8286 18.3388 12.784 18.3835 12.7393C18.4728 12.6946 18.5175 12.6053 18.5621 12.4713C18.6068 12.382 18.6068 12.248 18.6068 12.114V10.4168H19.2768V12.2033ZM21.7333 10.3274C21.8226 10.3274 21.9119 10.3274 22.0013 10.3274C22.0906 10.3274 22.1799 10.3721 22.2246 10.3721L22.0459 11.0421C21.9566 10.9974 21.9119 10.9974 21.778 10.9527C21.6886 10.9527 21.5993 10.9081 21.51 10.9081C21.4206 10.9081 21.2866 10.9081 21.1973 10.9527C21.108 10.9974 21.0187 11.0421 20.974 11.1314C20.9293 11.2207 20.84 11.31 20.84 11.3994C20.7953 11.4887 20.7953 11.6227 20.7953 11.7567V13.4539H20.1254V10.3721H20.7953V10.7294C20.8847 10.5954 21.0187 10.4614 21.1973 10.4168C21.3313 10.3721 21.51 10.3274 21.7333 10.3274ZM23.9665 10.3274C24.1898 10.3274 24.3685 10.3721 24.5471 10.4614C24.7258 10.5508 24.8598 10.6401 24.9938 10.7741C25.1278 10.9081 25.2171 11.0867 25.3064 11.2654C25.3957 11.444 25.3957 11.6674 25.3957 11.9353C25.3957 11.98 25.3957 12.0247 25.3957 12.0693C25.3957 12.114 25.3957 12.1587 25.3957 12.2033H23.1625C23.1625 12.3373 23.2072 12.4713 23.2965 12.5606C23.3412 12.65 23.4305 12.7393 23.5199 12.784C23.6092 12.8286 23.6985 12.8733 23.7878 12.918C23.8772 12.9626 24.0112 12.9626 24.1005 12.9626C24.2345 12.9626 24.4131 12.918 24.5471 12.8733C24.6811 12.8286 24.8598 12.7393 24.9938 12.65L25.3064 13.1413C25.1278 13.3199 24.9044 13.4093 24.7258 13.4986C24.5025 13.5433 24.2791 13.5879 24.0558 13.5879C23.8325 13.5879 23.6092 13.5433 23.4305 13.4539C23.2519 13.3646 23.0732 13.2753 22.9392 13.1413C22.8052 13.0073 22.6712 12.8286 22.6266 12.65C22.5372 12.4713 22.4926 12.248 22.4926 11.98C22.4926 11.7567 22.5372 11.5334 22.6266 11.31C22.7159 11.1314 22.8052 10.9527 22.9392 10.7741C23.0732 10.6401 23.2519 10.5061 23.4305 10.4614C23.5199 10.3721 23.7432 10.3274 23.9665 10.3274ZM23.9665 10.9527C23.8325 10.9527 23.7432 10.9527 23.6538 10.9974C23.5645 11.0421 23.4752 11.0867 23.4305 11.1761C23.3412 11.2654 23.2965 11.31 23.2519 11.3994C23.2072 11.4887 23.1625 11.578 23.1625 11.712H24.7704C24.7258 11.4887 24.6365 11.2654 24.5025 11.1314C24.3685 10.9974 24.1898 10.9527 23.9665 10.9527ZM28.3436 8.89818C28.5222 8.89818 28.7456 8.89818 28.9242 8.94284C29.1029 8.98751 29.2815 9.03217 29.4602 9.1215C29.6388 9.21083 29.7728 9.30016 29.9068 9.43415C30.0408 9.56814 30.1301 9.70214 30.2195 9.83613L29.5942 10.2381C29.4602 10.0148 29.2815 9.88079 29.0582 9.7468C28.8349 9.61281 28.6116 9.56814 28.3436 9.56814C28.1203 9.56814 27.8969 9.61281 27.7183 9.70213C27.5396 9.79146 27.361 9.88079 27.227 10.0594C27.093 10.1934 26.959 10.3721 26.9143 10.5954C26.825 10.8187 26.7803 10.9974 26.7803 11.2654C26.7803 11.4887 26.825 11.712 26.9143 11.9353C27.0037 12.1587 27.093 12.2927 27.227 12.4713C27.361 12.6053 27.5396 12.7393 27.7183 12.784C27.8969 12.8733 28.1203 12.918 28.3436 12.918C28.6116 12.918 28.8349 12.8733 29.0582 12.7393C29.2815 12.6053 29.4602 12.4713 29.5942 12.248L30.1748 12.6946C30.0855 12.8286 29.9515 12.9626 29.8175 13.0966C29.6835 13.2306 29.5495 13.3199 29.3709 13.3646C29.1922 13.4539 29.0582 13.4986 28.8796 13.5433C28.7009 13.5879 28.5222 13.5879 28.2989 13.5879C27.9416 13.5879 27.629 13.5433 27.361 13.4093C27.093 13.2753 26.825 13.1413 26.6017 12.918C26.3784 12.6946 26.2444 12.4713 26.1104 12.1587C25.9764 11.8907 25.9317 11.578 25.9317 11.2207C25.9317 10.8634 25.9764 10.5508 26.1104 10.2828C26.2444 10.0148 26.3784 9.7468 26.6017 9.52348C26.825 9.30016 27.0483 9.16616 27.361 9.03217C27.6736 8.98751 27.9863 8.89818 28.3436 8.89818ZM32.3187 10.3274C32.542 10.3274 32.7653 10.3721 32.9887 10.4614C33.212 10.5508 33.346 10.6401 33.5246 10.8187C33.6586 10.9527 33.7926 11.1314 33.8819 11.3547C33.9713 11.5334 34.0159 11.7567 34.0159 11.98C34.0159 12.2033 33.9713 12.4266 33.8819 12.6053C33.7926 12.784 33.7033 12.9626 33.5246 13.1413C33.3906 13.2753 33.212 13.4093 32.9887 13.4986C32.7653 13.5879 32.5867 13.6326 32.3187 13.6326C32.0954 13.6326 31.8721 13.5879 31.6487 13.4986C31.4254 13.4093 31.2914 13.3199 31.1128 13.1413C30.9788 13.0073 30.8448 12.8286 30.7554 12.6053C30.6661 12.4266 30.6215 12.2033 30.6215 11.98C30.6215 11.7567 30.6661 11.5334 30.7554 11.3547C30.8448 11.1761 30.9341 10.9974 31.1128 10.8187C31.2468 10.6847 31.4254 10.5508 31.6487 10.4614C31.8721 10.3721 32.0954 10.3274 32.3187 10.3274ZM32.3187 10.9527C32.1847 10.9527 32.0507 10.9974 31.9167 11.0421C31.7827 11.0867 31.6934 11.1761 31.6041 11.2654C31.5147 11.3547 31.4701 11.444 31.3807 11.578C31.3361 11.712 31.2914 11.846 31.2914 11.98C31.2914 12.114 31.3361 12.248 31.3807 12.382C31.4254 12.516 31.5147 12.6053 31.6041 12.6946C31.6934 12.784 31.7827 12.8286 31.9167 12.918C32.0507 12.9626 32.1847 13.0073 32.3187 13.0073C32.4527 13.0073 32.5867 12.9626 32.7207 12.918C32.8547 12.8733 32.944 12.784 33.0333 12.6946C33.1226 12.6053 33.1673 12.516 33.2566 12.382C33.3013 12.248 33.346 12.114 33.346 11.98C33.346 11.846 33.3013 11.712 33.2566 11.578C33.212 11.444 33.1226 11.3547 33.0333 11.2654C32.944 11.1761 32.8547 11.1314 32.7207 11.0421C32.5867 10.9974 32.4527 10.9527 32.3187 10.9527ZM36.0258 10.3274C36.2491 10.3274 36.4278 10.3721 36.6065 10.4614C36.7851 10.5508 36.9191 10.6401 37.0084 10.7741V8.85352H37.6784V13.4986H37.0084V13.1413C36.9191 13.2753 36.7851 13.4093 36.6065 13.4539C36.4278 13.5433 36.2491 13.5879 36.0258 13.5879C35.8025 13.5879 35.6238 13.5433 35.4005 13.4539C35.2219 13.3646 35.0432 13.2753 34.9092 13.0966C34.7752 12.9626 34.6412 12.784 34.5966 12.5606C34.5072 12.382 34.4626 12.1587 34.4626 11.8907C34.4626 11.6674 34.5072 11.444 34.5966 11.2207C34.6859 11.0421 34.7752 10.8634 34.9092 10.6847C35.0432 10.5508 35.2219 10.4168 35.4005 10.3274C35.5792 10.3721 35.8025 10.3274 36.0258 10.3274ZM36.0705 10.9527C35.9365 10.9527 35.8025 10.9974 35.6685 11.0421C35.5345 11.0867 35.4452 11.1761 35.3559 11.2654C35.2665 11.3547 35.2219 11.444 35.1772 11.578C35.1325 11.712 35.1325 11.846 35.1325 11.98C35.1325 12.114 35.1325 12.248 35.1772 12.382C35.2219 12.516 35.2665 12.6053 35.3559 12.6946C35.4452 12.784 35.5345 12.8733 35.6685 12.918C35.8025 12.9626 35.8918 13.0073 36.0705 13.0073C36.2045 13.0073 36.3385 12.9626 36.4725 12.918C36.6065 12.8733 36.6958 12.784 36.7851 12.6946C36.8744 12.6053 36.9191 12.516 36.9638 12.382C37.0084 12.248 37.0531 12.114 37.0531 11.98C37.0531 11.846 37.0084 11.712 36.9638 11.578C36.9191 11.444 36.8744 11.3547 36.7851 11.2654C36.6958 11.1761 36.6065 11.0867 36.4725 11.0421C36.3385 10.9974 36.2491 10.9527 36.0705 10.9527ZM39.9116 10.3274C40.1349 10.3274 40.3136 10.3721 40.4922 10.4614C40.6709 10.5508 40.8049 10.6401 40.9389 10.7741C41.0729 10.9081 41.1622 11.0867 41.2515 11.2654C41.3409 11.444 41.3409 11.6674 41.3409 11.9353C41.3409 11.98 41.3409 12.0247 41.3409 12.0693C41.3409 12.114 41.3409 12.1587 41.3409 12.2033H39.063C39.063 12.3373 39.1076 12.4713 39.197 12.5606C39.2416 12.65 39.331 12.7393 39.4203 12.784C39.5096 12.8286 39.599 12.8733 39.6883 12.918C39.7776 12.9626 39.9116 12.9626 40.0009 12.9626C40.1349 12.9626 40.3136 12.918 40.4476 12.8733C40.5816 12.8286 40.7602 12.7393 40.8942 12.65L41.2069 13.1413C41.0282 13.3199 40.8049 13.4093 40.6262 13.4986C40.4029 13.5433 40.1796 13.5879 39.9563 13.5879C39.7329 13.5879 39.5096 13.5433 39.331 13.4539C39.1523 13.3646 38.9737 13.2753 38.8397 13.1413C38.7057 13.0073 38.5717 12.8286 38.527 12.65C38.4377 12.4713 38.393 12.248 38.393 11.98C38.393 11.7567 38.4377 11.5334 38.527 11.31C38.6163 11.1314 38.7057 10.9527 38.8397 10.7741C38.9737 10.6401 39.1523 10.5061 39.331 10.4614C39.465 10.3721 39.6883 10.3274 39.9116 10.3274ZM41.6535 13.4986V13.3646H41.6982V13.3199H41.5195V13.3646H41.5642L41.6535 13.4986ZM41.9662 13.4986V13.3199H41.9215L41.8768 13.4539L41.8322 13.3199H41.7875V13.4986H41.8322V13.3646L41.8768 13.4986H41.9215L41.9662 13.3646V13.4986ZM39.8669 10.9527C39.7329 10.9527 39.6436 10.9527 39.5543 10.9974C39.465 11.0421 39.3756 11.0867 39.331 11.1761C39.2416 11.2654 39.197 11.31 39.1523 11.3994C39.1076 11.4887 39.063 11.578 39.063 11.712H40.6709C40.6262 11.4887 40.5369 11.2654 40.4029 11.1314C40.2689 10.9974 40.0903 10.9527 39.8669 10.9527Z" fill="#F59E1F"/>
        <path d="M10.8361 7.15674H10.0768V3.31562L8.7369 6.66543H7.93294L6.54835 3.31562V7.11207H5.78906V2.467H6.95033L8.29026 5.81681L9.63018 2.467H10.7914V7.15674H10.8361ZM14.8112 7.15674H14.0966V6.75476C14.0073 6.88875 13.8286 7.02275 13.6946 7.11207C13.516 7.2014 13.3373 7.24607 13.114 7.24607C12.8907 7.24607 12.6673 7.2014 12.4887 7.11207C12.31 7.02275 12.1314 6.93342 11.9974 6.75476C11.8634 6.62077 11.7294 6.44211 11.6401 6.21879C11.5507 5.99547 11.5061 5.77215 11.5061 5.54883C11.5061 5.32551 11.5507 5.05752 11.6401 4.87887C11.7294 4.65554 11.8187 4.47689 11.9974 4.3429C12.1314 4.2089 12.31 4.07491 12.4887 3.98558C12.6673 3.89625 12.8907 3.85159 13.114 3.85159C13.3373 3.85159 13.5606 3.89625 13.6946 3.98558C13.8733 4.07491 14.0073 4.16424 14.0966 4.3429V3.94092H14.8112V7.15674ZM13.2033 4.52155C13.0693 4.52155 12.9353 4.56622 12.8013 4.61088C12.6673 4.65554 12.578 4.74487 12.4887 4.8342C12.3994 4.92353 12.3547 5.01286 12.31 5.14685C12.2654 5.28084 12.2654 5.41484 12.2654 5.54883C12.2654 5.68282 12.2654 5.81681 12.31 5.9508C12.3547 6.0848 12.3994 6.17413 12.4887 6.26345C12.578 6.35278 12.6673 6.44211 12.8013 6.48678C12.9353 6.53144 13.0693 6.5761 13.2033 6.5761C13.3373 6.5761 13.4713 6.53144 13.6053 6.48678C13.7393 6.44211 13.8286 6.35278 13.9179 6.26345C14.0073 6.17413 14.0519 6.0848 14.0966 5.9508C14.1413 5.81681 14.1859 5.68282 14.1859 5.54883C14.1859 5.41484 14.1413 5.28084 14.0966 5.14685C14.0519 5.01286 13.9626 4.92353 13.9179 4.8342C13.8286 4.74487 13.7393 4.65554 13.6053 4.61088C13.4713 4.52155 13.3373 4.52155 13.2033 4.52155ZM18.027 4.74487C17.9824 4.70021 17.9377 4.70021 17.8484 4.65554C17.7591 4.61088 17.7144 4.61088 17.6251 4.56622C17.5357 4.52155 17.4464 4.52155 17.3571 4.52155C17.2678 4.52155 17.1784 4.47689 17.0444 4.47689C16.8658 4.47689 16.6871 4.52155 16.5978 4.56622C16.5085 4.65554 16.4191 4.74487 16.4191 4.8342C16.4191 4.87887 16.4191 4.92353 16.4638 4.96819C16.5085 5.01286 16.5085 5.05752 16.5978 5.05752C16.6425 5.10219 16.6871 5.10219 16.7764 5.10219C16.8211 5.10219 16.9104 5.14685 16.9998 5.14685L17.3124 5.19151C17.6697 5.23618 17.9377 5.32551 18.1164 5.50416C18.295 5.63816 18.429 5.86148 18.429 6.12946C18.429 6.26345 18.3844 6.44211 18.3397 6.53144C18.295 6.66543 18.161 6.75476 18.0717 6.84409C17.9377 6.93342 17.8037 7.02275 17.6251 7.06741C17.4464 7.11207 17.2231 7.15674 16.9998 7.15674C16.9104 7.15674 16.8211 7.15674 16.7318 7.15674C16.6425 7.15674 16.5085 7.11207 16.3745 7.11207C16.2405 7.06741 16.1065 7.02275 16.0172 6.97808C15.8832 6.93342 15.7492 6.84409 15.6598 6.75476L15.9725 6.21879C16.0172 6.26345 16.1065 6.30812 16.1511 6.35278C16.2405 6.39745 16.2851 6.44211 16.3745 6.44211C16.4638 6.48677 16.5531 6.48678 16.6425 6.53144C16.7318 6.53144 16.8658 6.5761 16.9998 6.5761C17.2231 6.5761 17.4017 6.53144 17.5357 6.48678C17.6697 6.39745 17.7144 6.30812 17.7144 6.21879C17.7144 6.12946 17.6697 6.04013 17.5804 5.99547C17.4911 5.95081 17.3571 5.90614 17.1784 5.86148L16.8658 5.81681C16.5085 5.77215 16.2405 5.68282 16.0618 5.50416C15.8832 5.32551 15.7938 5.14685 15.7938 4.87887C15.7938 4.70021 15.8385 4.56622 15.8832 4.43222C15.9278 4.29823 16.0172 4.2089 16.1511 4.11957C16.2851 4.03025 16.4191 3.98558 16.5531 3.89625C16.7318 3.85159 16.9104 3.80693 17.0891 3.80693C17.3571 3.80693 17.5804 3.85159 17.8037 3.89625C18.027 3.94092 18.2057 4.03025 18.3844 4.16424L18.027 4.74487ZM21.3322 4.56622H20.1263V5.9508C20.1263 6.04013 20.1263 6.12946 20.1709 6.21879C20.2156 6.30812 20.2156 6.35278 20.2603 6.39745C20.3049 6.44211 20.3496 6.48678 20.4389 6.48678C20.4836 6.48678 20.5729 6.53144 20.6176 6.53144C20.7069 6.53144 20.8409 6.53144 20.9302 6.48678C21.0642 6.44211 21.1535 6.39745 21.2429 6.35278L21.5108 6.88875C21.3769 6.97808 21.2429 7.06741 21.0642 7.11207C20.8855 7.15674 20.7069 7.2014 20.5282 7.2014C20.1709 7.2014 19.9029 7.11207 19.6796 6.88875C19.4563 6.66543 19.367 6.35278 19.367 5.9508V4.52155H18.7417V3.89625H19.367V2.91364H20.0816V3.89625H21.2875V4.56622H21.3322ZM23.4761 3.85159C23.6994 3.85159 23.9227 3.89625 24.1014 3.98558C24.28 4.07491 24.4587 4.16424 24.5927 4.3429C24.7267 4.47689 24.816 4.65554 24.9053 4.87887C24.9947 5.10219 25.0393 5.32551 25.0393 5.54883C25.0393 5.59349 25.0393 5.63816 25.0393 5.68282C25.0393 5.72748 25.0393 5.77215 25.0393 5.81681H22.6721C22.6721 5.95081 22.7168 6.0848 22.8061 6.17413C22.8508 6.26345 22.9401 6.35278 23.0294 6.44211C23.1188 6.48677 23.2081 6.5761 23.2974 6.5761C23.3867 6.62077 23.5207 6.62077 23.6101 6.62077C23.7887 6.62077 23.9227 6.5761 24.1014 6.53144C24.28 6.48678 24.414 6.39745 24.548 6.26345L24.9053 6.75476C24.7267 6.93342 24.5033 7.02275 24.28 7.11207C24.0567 7.15674 23.8334 7.2014 23.5654 7.2014C23.3421 7.2014 23.1188 7.15674 22.8954 7.06741C22.7168 6.97808 22.5381 6.88875 22.3595 6.7101C22.2255 6.5761 22.0915 6.39745 22.0022 6.17413C21.9128 5.9508 21.8682 5.72748 21.8682 5.50416C21.8682 5.23618 21.9128 5.01286 22.0022 4.8342C22.0915 4.61088 22.1808 4.43222 22.3148 4.29823C22.4488 4.16424 22.6274 4.03025 22.8061 3.94092C23.0294 3.89625 23.2527 3.85159 23.4761 3.85159ZM23.4761 4.47689C23.3421 4.47689 23.2528 4.47689 23.1634 4.52155C23.0741 4.56622 22.9848 4.61088 22.8954 4.70021C22.8061 4.78954 22.7614 4.8342 22.7168 4.96819C22.6721 5.05752 22.6274 5.19151 22.6274 5.28084H24.28C24.2354 5.01286 24.146 4.8342 24.012 4.70021C23.878 4.52155 23.6994 4.47689 23.4761 4.47689ZM27.4065 3.85159C27.4958 3.85159 27.6298 3.85159 27.6745 3.85159C27.7638 3.85159 27.8532 3.89625 27.9425 3.94092L27.7638 4.61088C27.6745 4.56622 27.5852 4.56622 27.4958 4.52155C27.4065 4.52155 27.3172 4.47689 27.2279 4.47689C27.1385 4.47689 27.0045 4.47689 26.9152 4.52155C26.8259 4.56622 26.7366 4.61088 26.6919 4.70021C26.6472 4.78954 26.5579 4.87887 26.5132 4.96819C26.4686 5.05752 26.4686 5.19151 26.4686 5.32551V7.06741H25.7539V3.85159H26.4239V4.2089C26.5132 4.07491 26.6472 3.94092 26.8259 3.85159C27.0492 3.89625 27.2279 3.85159 27.4065 3.85159ZM29.8184 3.85159C30.0417 3.85159 30.265 3.89625 30.4883 3.98558C30.7117 4.07491 30.8903 4.2089 31.0243 4.38756L30.5777 4.87887C30.4437 4.78954 30.3544 4.70021 30.2204 4.61088C30.0864 4.56622 29.9524 4.52155 29.8184 4.52155C29.6844 4.52155 29.5504 4.56622 29.4611 4.61088C29.3271 4.65554 29.2377 4.74487 29.1484 4.8342C29.0591 4.92353 29.0144 5.01286 28.9698 5.14685C28.9251 5.28084 28.8804 5.41484 28.8804 5.54883C28.8804 5.68282 28.9251 5.81681 28.9698 5.9508C29.0144 6.0848 29.1038 6.17413 29.1484 6.26345C29.2377 6.35278 29.3271 6.44211 29.4611 6.48678C29.5951 6.53144 29.6844 6.5761 29.8184 6.5761C29.9524 6.5761 30.131 6.53144 30.265 6.48678C30.399 6.44211 30.533 6.35278 30.6223 6.26345L31.069 6.75476C30.935 6.93342 30.7563 7.06741 30.533 7.15674C30.3097 7.24607 30.0864 7.29073 29.863 7.29073C29.5951 7.29073 29.3717 7.24607 29.1931 7.15674C28.9698 7.06741 28.7911 6.93342 28.6571 6.79942C28.5231 6.66543 28.3891 6.48678 28.2998 6.26345C28.2105 6.04013 28.1658 5.81681 28.1658 5.59349C28.1658 5.37017 28.2105 5.14685 28.2998 4.92353C28.3891 4.70021 28.4785 4.52155 28.6571 4.38756C28.7911 4.25357 28.9698 4.11957 29.1931 4.03025C29.3271 3.89625 29.5504 3.85159 29.8184 3.85159ZM34.7314 7.15674H34.0168V6.75476C33.9275 6.88875 33.7488 7.02275 33.6148 7.11207C33.4362 7.2014 33.2575 7.24607 33.0342 7.24607C32.8109 7.24607 32.5876 7.2014 32.4089 7.11207C32.2302 7.02275 32.0516 6.93342 31.9176 6.75476C31.7836 6.62077 31.6496 6.44211 31.5603 6.21879C31.471 5.99547 31.4263 5.77215 31.4263 5.54883C31.4263 5.32551 31.471 5.05752 31.5603 4.87887C31.6496 4.65554 31.7389 4.47689 31.9176 4.3429C32.0516 4.2089 32.2302 4.07491 32.4089 3.98558C32.5876 3.89625 32.8109 3.85159 33.0342 3.85159C33.2575 3.85159 33.4808 3.89625 33.6148 3.98558C33.7935 4.07491 33.9275 4.16424 34.0168 4.3429V3.94092H34.7314V7.15674ZM33.1235 4.52155C32.9895 4.52155 32.8555 4.56622 32.7216 4.61088C32.5876 4.65554 32.4982 4.74487 32.4089 4.8342C32.3196 4.92353 32.2749 5.01286 32.2302 5.14685C32.1856 5.28084 32.1856 5.41484 32.1856 5.54883C32.1856 5.68282 32.2302 5.81681 32.2302 5.9508C32.2749 6.0848 32.3196 6.17413 32.4089 6.26345C32.4982 6.35278 32.5876 6.44211 32.7216 6.48678C32.8555 6.53144 32.9895 6.5761 33.1235 6.5761C33.2575 6.5761 33.3915 6.53144 33.5255 6.48678C33.6595 6.44211 33.7488 6.35278 33.8382 6.26345C33.9275 6.17413 33.9721 6.0848 34.0168 5.9508C34.0615 5.81681 34.1061 5.68282 34.1061 5.54883C34.1061 5.41484 34.0615 5.28084 34.0168 5.14685C33.9721 5.01286 33.8828 4.92353 33.8382 4.8342C33.7488 4.74487 33.6595 4.65554 33.5255 4.61088C33.3915 4.52155 33.2575 4.52155 33.1235 4.52155ZM37.3666 3.85159C37.456 3.85159 37.5899 3.85159 37.6346 3.85159C37.7239 3.85159 37.8133 3.89625 37.9026 3.94092L37.7239 4.61088C37.6346 4.56622 37.5453 4.56622 37.456 4.52155C37.3666 4.52155 37.2773 4.47689 37.188 4.47689C37.0986 4.47689 36.9646 4.47689 36.8753 4.52155C36.786 4.56622 36.6967 4.61088 36.652 4.70021C36.6073 4.78954 36.518 4.87887 36.4733 4.96819C36.4287 5.05752 36.4287 5.19151 36.4287 5.32551V7.06741H35.714V3.85159H36.384V4.2089C36.4733 4.07491 36.6073 3.94092 36.786 3.85159C37.0093 3.89625 37.188 3.85159 37.3666 3.85159ZM39.6892 3.85159C39.9125 3.85159 40.1358 3.89625 40.2698 3.98558C40.4485 4.07491 40.5824 4.16424 40.6718 4.3429V2.33301H41.3864V7.15674H40.6718V6.75476C40.5824 6.88875 40.4038 7.02275 40.2698 7.11207C40.0911 7.2014 39.9125 7.24607 39.6892 7.24607C39.4658 7.24607 39.2425 7.2014 39.0639 7.11207C38.8852 7.02275 38.7065 6.93342 38.5726 6.75476C38.4386 6.62077 38.3046 6.44211 38.2152 6.21879C38.1259 5.99547 38.0812 5.77215 38.0812 5.54883C38.0812 5.32551 38.1259 5.05752 38.2152 4.87887C38.3046 4.65554 38.3939 4.47689 38.5726 4.3429C38.7065 4.2089 38.8852 4.07491 39.0639 3.98558C39.2425 3.89625 39.4658 3.85159 39.6892 3.85159ZM42.1904 6.84409C42.235 6.84409 42.235 6.84409 42.2797 6.84409C42.3243 6.84409 42.3243 6.88875 42.3243 6.88875L42.369 6.93342C42.369 6.97808 42.369 6.97808 42.369 7.02274C42.369 7.06741 42.369 7.06741 42.369 7.11207C42.369 7.15674 42.3243 7.15674 42.3243 7.15674L42.2797 7.2014C42.235 7.2014 42.235 7.2014 42.1904 7.2014C42.1457 7.2014 42.1457 7.2014 42.101 7.2014C42.0564 7.2014 42.0564 7.15674 42.0564 7.15674L42.0117 7.11207C42.0117 7.06741 42.0117 7.06741 42.0117 7.02274C42.0117 6.97808 42.0117 6.97808 42.0117 6.93342C42.0117 6.88875 42.0564 6.88875 42.0564 6.88875L42.101 6.84409C42.1457 6.84409 42.1457 6.84409 42.1904 6.84409ZM42.1904 7.2014H42.235C42.235 7.2014 42.2797 7.2014 42.2797 7.15674L42.3243 7.11207V7.06741V7.02274C42.3243 7.02274 42.3243 6.97808 42.2797 6.97808L42.235 6.93342H42.1904H42.1457C42.1457 6.93342 42.101 6.93342 42.101 6.97808L42.0564 7.02274V7.06741V7.11207C42.0564 7.11207 42.0564 7.15674 42.101 7.15674L42.1457 7.2014H42.1904ZM42.1904 6.93342C42.235 6.93342 42.235 6.93342 42.235 6.93342V6.97808V7.02274H42.1904L42.235 7.11207H42.1904L42.1457 7.02274V7.11207H42.101V6.93342H42.1904ZM42.1457 6.97808V7.02274H42.1904C42.1904 7.02274 42.1904 7.02274 42.235 7.02274C42.235 7.02274 42.235 7.02274 42.1904 7.02274H42.1457V6.97808ZM39.7785 4.52155C39.6445 4.52155 39.5105 4.56622 39.3765 4.61088C39.2425 4.65554 39.1532 4.74487 39.0639 4.8342C38.9745 4.92353 38.9299 5.01286 38.8852 5.14685C38.7959 5.28084 38.7959 5.41484 38.7959 5.54883C38.7959 5.68282 38.8405 5.81681 38.8405 5.9508C38.8852 6.0848 38.9299 6.17413 39.0192 6.26345C39.1085 6.35278 39.1979 6.44211 39.3318 6.48678C39.4658 6.53144 39.5998 6.5761 39.7338 6.5761C39.8678 6.5761 40.0018 6.53144 40.1358 6.48678C40.2698 6.44211 40.3591 6.35278 40.4484 6.26345C40.5378 6.17413 40.5824 6.0848 40.6271 5.9508C40.6718 5.81681 40.7164 5.68282 40.7164 5.54883C40.7164 5.41484 40.6718 5.28084 40.6271 5.14685C40.5824 5.01286 40.4931 4.92353 40.4484 4.8342C40.3591 4.74487 40.2698 4.65554 40.1358 4.61088C40.0465 4.52155 39.9125 4.52155 39.7785 4.52155Z" fill="#E41522"/>
    </symbol>
    <symbol id="visasecure" width="48" height="16" viewBox="0 0 48 16" fill="none" xmlns="http://www.w3.org/2000/svg">
        <path d="M24 3H2V14H24V3Z" fill="white"/>
        <path d="M10.7656 6.07815L8.68785 11.0115H7.3434L6.32118 7.06704C6.25451 6.82259 6.21007 6.7337 6.02118 6.6337C5.71007 6.46704 5.21007 6.31148 4.76562 6.21148L4.79896 6.06704H6.97674C7.25451 6.06704 7.49896 6.25592 7.56562 6.56704L8.09896 9.42259L9.43229 6.05592H10.7656V6.07815ZM16.0545 9.40037C16.0656 8.10037 14.2545 8.02259 14.2656 7.44481C14.2656 7.26704 14.4434 7.07815 14.8101 7.0337C14.9878 7.01148 15.499 6.98926 16.0656 7.25592L16.2878 6.21148C15.9767 6.10037 15.5878 5.98926 15.0878 5.98926C13.8212 5.98926 12.9323 6.65592 12.9323 7.62259C12.9212 8.3337 13.5656 8.7337 14.0545 8.96704C14.5545 9.21148 14.7212 9.36704 14.7212 9.57815C14.7212 9.91148 14.3212 10.0559 13.9545 10.067C13.3101 10.0781 12.9434 9.88926 12.6434 9.75592L12.4101 10.8337C12.7101 10.967 13.2656 11.0893 13.8323 11.1004C15.1767 11.0893 16.0545 10.4337 16.0545 9.40037ZM19.3878 11.0115H20.5656L19.5323 6.06704H18.4434C18.199 6.06704 17.9878 6.21148 17.899 6.4337L15.9767 11.0115H17.3323L17.599 10.2781H19.2434L19.3878 11.0115ZM17.9656 9.26704L18.6434 7.41148L19.0323 9.26704H17.9656ZM12.5878 6.07815L11.5323 11.0226H10.2545L11.3101 6.07815H12.5878Z" fill="#1434CB"/>
        <path d="M46 3H24V14H46V3Z" fill="#1434CB"/>
        <path d="M28.597 7.8554C28.597 7.69985 28.6304 7.56651 28.7082 7.4554C28.7859 7.34429 28.8859 7.26652 29.0193 7.21096C29.1526 7.1554 29.297 7.12207 29.4637 7.12207C29.6526 7.12207 29.797 7.14429 29.9082 7.17763C30.0193 7.21096 30.1082 7.2554 30.1637 7.28874L30.197 7.69985H30.1859C30.1304 7.6554 30.0637 7.61096 29.9859 7.57763C29.9082 7.54429 29.8193 7.51096 29.7304 7.48874C29.6415 7.46652 29.5526 7.4554 29.4637 7.4554C29.3304 7.4554 29.2193 7.47763 29.1304 7.52207C29.0415 7.56651 28.997 7.64429 28.997 7.7554C28.997 7.84429 29.0193 7.91096 29.0526 7.9554C29.097 7.99985 29.1526 8.04429 29.2304 8.07763C29.3082 8.11096 29.4082 8.14429 29.5304 8.17763C29.6415 8.21096 29.7526 8.24429 29.8526 8.26652C29.9526 8.29985 30.0415 8.34429 30.1082 8.38874C30.1859 8.44429 30.2415 8.51096 30.2859 8.58874C30.3304 8.67763 30.3526 8.77763 30.3526 8.91096C30.3526 9.16651 30.2748 9.3554 30.1082 9.48874C29.9415 9.62207 29.7082 9.68874 29.4193 9.68874C29.2748 9.68874 29.1193 9.66651 28.9748 9.63318C28.8193 9.58874 28.697 9.53318 28.6082 9.46651L28.5859 9.0554H28.597C28.7082 9.14429 28.8415 9.22207 28.9859 9.26652C29.1415 9.32207 29.297 9.34429 29.4526 9.34429C29.7859 9.34429 29.9526 9.23318 29.9526 8.99985C29.9526 8.92207 29.9304 8.8554 29.897 8.79985C29.8637 8.74429 29.797 8.71096 29.7193 8.67763C29.6415 8.64429 29.5304 8.61096 29.397 8.57763C29.297 8.54429 29.197 8.52207 29.097 8.48874C29.0082 8.4554 28.9193 8.41096 28.8415 8.3554C28.7637 8.29985 28.7082 8.23318 28.6637 8.1554C28.6193 8.08874 28.597 7.98874 28.597 7.8554Z" fill="white"/>
        <path d="M30.6953 9.6676V7.17871H32.3064V7.53427H31.1286V8.20093H32.0509V8.54538H31.1286V9.30093H32.2953V9.6676H30.6953Z" fill="white"/>
        <path d="M32.9634 8.42244C32.9634 8.61133 32.9967 8.77799 33.0634 8.91133C33.13 9.05577 33.23 9.15577 33.3634 9.23355C33.4967 9.31133 33.6523 9.34466 33.83 9.34466C34.0189 9.34466 34.1745 9.31133 34.2967 9.25577C34.4189 9.20022 34.53 9.12244 34.6189 9.03355H34.63L34.5856 9.46688C34.4856 9.53355 34.3745 9.58911 34.2411 9.63355C34.1078 9.67799 33.9523 9.70022 33.7856 9.70022C33.5856 9.70022 33.4078 9.66688 33.2523 9.60022C33.0967 9.53355 32.9634 9.44466 32.8523 9.32244C32.7411 9.20022 32.6523 9.06688 32.5967 8.91133C32.5411 8.75577 32.5078 8.58911 32.5078 8.41133C32.5078 8.23355 32.5411 8.05577 32.5967 7.90022C32.6523 7.74466 32.7411 7.61133 32.8523 7.48911C32.9634 7.36688 33.0967 7.27799 33.2523 7.21133C33.4078 7.14466 33.5856 7.11133 33.7745 7.11133C33.9523 7.11133 34.0967 7.13355 34.23 7.16688C34.3523 7.20022 34.4634 7.25577 34.5523 7.32244L34.5967 7.76688H34.5856C34.4967 7.67799 34.3856 7.60022 34.2634 7.55577C34.1411 7.50022 33.9967 7.47799 33.83 7.47799C33.6523 7.47799 33.4967 7.51133 33.3634 7.58911C33.23 7.66688 33.1411 7.77799 33.0745 7.91133C32.9967 8.06688 32.9634 8.23355 32.9634 8.42244Z" fill="white"/>
        <path d="M36.0075 9.33427C36.2297 9.33427 36.3964 9.28982 36.4964 9.18982C36.5964 9.08982 36.6519 8.92316 36.6519 8.68982V7.17871H37.0186V8.72316C37.0186 9.0676 36.9297 9.32316 36.7519 9.47871C36.5741 9.63427 36.3186 9.71204 35.9852 9.71204C35.6519 9.71204 35.3964 9.63427 35.2075 9.47871C35.0186 9.32316 34.9297 9.0676 34.9297 8.72316V7.17871H35.3741V8.68982C35.3741 8.92316 35.4186 9.08982 35.5186 9.18982C35.6186 9.28982 35.7852 9.33427 36.0075 9.33427Z" fill="white"/>
        <path d="M37.4531 9.6676V7.17871H38.5087C38.6753 7.17871 38.8087 7.21204 38.9309 7.27871C39.0531 7.34538 39.142 7.43427 39.2087 7.54538C39.2753 7.65649 39.3087 7.78982 39.3087 7.93427C39.3087 8.10093 39.2642 8.25649 39.1642 8.37871C39.0753 8.50093 38.942 8.58982 38.7753 8.63427L39.4198 9.6676H38.9198L38.342 8.68982H37.8976V9.6676H37.4531ZM38.3865 7.52316H37.8865V8.3676H38.3865C38.542 8.3676 38.6642 8.33427 38.7309 8.2676C38.7976 8.20093 38.842 8.08982 38.842 7.95649C38.842 7.82316 38.8087 7.71204 38.7309 7.64538C38.6642 7.55649 38.542 7.52316 38.3865 7.52316Z" fill="white"/>
        <path d="M39.7422 9.6676V7.17871H41.3533V7.53427H40.1866V8.20093H41.1089V8.54538H40.1866V9.30093H41.3533V9.6676H39.7422Z" fill="white"/>
    </symbol>
    <symbol id="belcartpassword" width="48" height="16" viewBox="0 0 48 16" fill="none" xmlns="http://www.w3.org/2000/svg">
        <path d="M12.553 12.6004C12.0412 12.0768 11.2002 12.0688 10.6765 12.5806L8.06999 15.1355C7.89543 15.3061 7.8994 15.5283 7.95891 15.6751C8.01842 15.8219 8.16917 15.9805 8.41514 15.9845L12.9973 16.0004C13.3504 16.0004 13.644 15.7147 13.648 15.3617C13.648 15.3418 13.648 15.322 13.648 15.3061C13.6559 14.2984 13.2552 13.3185 12.553 12.6004Z" fill="#5756CE"/>
        <path d="M9.00646 11.9773C9.01439 11.2473 8.42327 10.6443 7.69329 10.6364L4.04737 10.6007C3.8014 10.5967 3.65064 10.7554 3.58717 10.9022C3.52369 11.049 3.51972 11.2711 3.69031 11.4417L6.91967 14.6909C7.16961 14.9409 7.57824 14.9448 7.83214 14.6988C7.84405 14.6869 7.85991 14.6711 7.87182 14.6592C8.58593 13.9609 8.99852 12.981 9.00646 11.9773Z" fill="#5756CE"/>
        <path d="M6.9312 9.02566C7.45488 8.51389 7.46281 7.67282 6.95104 7.14914L4.39611 4.54265C4.22552 4.36809 4.00336 4.37205 3.85657 4.43156C3.70978 4.49107 3.55109 4.64183 3.54712 4.8878L3.53125 9.47396C3.53125 9.82705 3.81689 10.1206 4.16998 10.1246C4.18982 10.1246 4.20965 10.1246 4.22552 10.1246C5.22924 10.1286 6.21312 9.72787 6.9312 9.02566Z" fill="#5756CE"/>
        <path d="M10.5012 3.39995C11.013 3.92363 11.8541 3.93156 12.3778 3.41979L14.9843 0.864865C15.1588 0.694272 15.1549 0.472105 15.0953 0.325316C15.0358 0.178527 14.8851 0.0198364 14.6391 0.0158691L10.0569 0C9.70382 0 9.41025 0.285643 9.40628 0.63873C9.40628 0.658567 9.40628 0.678403 9.40628 0.694272C9.40231 1.70196 9.79904 2.68187 10.5012 3.39995Z" fill="#5756CE"/>
        <path d="M14.0548 4.02284C14.0468 4.75281 14.638 5.35584 15.3679 5.36377L19.0139 5.39948C19.2598 5.40345 19.4106 5.24475 19.4741 5.09797C19.5375 4.95118 19.5415 4.72901 19.3709 4.55842L16.1415 1.30129C15.8916 1.05135 15.483 1.04738 15.2291 1.29335C15.2172 1.30526 15.2013 1.32112 15.1894 1.33303C14.4793 2.0392 14.0667 3.01515 14.0548 4.02284Z" fill="#5756CE"/>
        <path d="M16.1327 6.97399C15.609 7.48577 15.601 8.32683 16.1128 8.85051L18.6677 11.457C18.8383 11.6316 19.0605 11.6276 19.2073 11.5681C19.3541 11.5086 19.5128 11.3578 19.5167 11.1119L19.5326 6.52966C19.5326 6.17657 19.247 5.88299 18.8939 5.87902C18.874 5.87902 18.8542 5.87902 18.8383 5.87902C17.8307 5.87109 16.8468 6.26782 16.1327 6.97399Z" fill="#5756CE"/>
        <path d="M15.5095 10.5255C14.7795 10.5175 14.1765 11.1087 14.1686 11.8386L14.1329 15.4846C14.1289 15.7305 14.2876 15.8813 14.4344 15.9448C14.5812 16.0082 14.8034 16.0122 14.9739 15.8416L18.2231 12.6123C18.4731 12.3623 18.477 11.9537 18.2311 11.6998C18.2192 11.6879 18.2033 11.672 18.1914 11.6601C17.4892 10.95 16.5132 10.5374 15.5095 10.5255Z" fill="#5756CE"/>
        <path d="M8.46959 2.29675V2.02301C8.46959 1.35651 7.94195 0.801092 7.27544 0.793158C6.59704 0.781256 6.04162 1.33271 6.04162 2.00714V2.30072C5.64886 2.45148 5.36719 2.83233 5.36719 3.28064V3.96697C5.36719 4.5462 5.83533 5.01433 6.41455 5.01433H6.76763C6.83111 5.01433 6.88665 4.96673 6.90252 4.90325L7.05724 3.85192C7.06121 3.82415 7.04931 3.79638 7.02551 3.78051C6.87872 3.69323 6.78747 3.53057 6.80731 3.34411C6.83111 3.13781 6.99377 2.97516 7.20007 2.95135C7.46984 2.91961 7.70391 3.13385 7.70391 3.39569C7.70391 3.55835 7.61663 3.70117 7.48571 3.78051C7.46191 3.79638 7.45 3.82415 7.45397 3.85192L7.60869 4.90325C7.6206 4.96673 7.67614 5.01433 7.74358 5.01433H8.09667C8.67589 5.01433 9.14403 4.5462 9.14403 3.96697V3.27667C9.14006 2.82837 8.86235 2.44751 8.46959 2.29675ZM8.19982 2.23328C8.16411 2.22931 8.12841 2.22931 8.09667 2.22931H6.41851C6.38281 2.22931 6.3471 2.22931 6.31536 2.23328V2.00318C6.31536 1.47553 6.7478 1.05103 7.27544 1.05896C7.79119 1.0669 8.19982 1.5033 8.19982 2.01904V2.23328Z" fill="#5756CE"/>
        <path d="M26.6726 3.97899C26.6726 4.70897 26.133 5.22075 25.3832 5.22075C24.6731 5.22075 24.0859 4.76055 24.0859 3.84807V3.40374C24.0859 2.52697 24.5104 1.89221 25.296 1.74145L26.4584 1.59863V2.06677L25.407 2.19372C24.931 2.28894 24.6414 2.59442 24.6136 3.22521C24.7961 2.86419 25.1452 2.76898 25.4705 2.76898C26.1648 2.76501 26.6726 3.25695 26.6726 3.97899ZM26.141 3.97503C26.141 3.53863 25.8276 3.22125 25.3872 3.22125C24.9429 3.22125 24.6295 3.53466 24.6295 3.97503C24.6295 4.42333 24.9429 4.73278 25.3872 4.73278C25.8236 4.73278 26.141 4.42333 26.141 3.97503Z" fill="#29374A"/>
        <path d="M29.5076 4.12219C29.5076 4.04284 29.5076 3.97143 29.5036 3.89605C29.4441 3.09466 28.9363 2.6543 28.246 2.6543C27.512 2.6543 26.9844 3.20971 26.9844 3.94366C26.9844 4.71331 27.5358 5.22509 28.2856 5.22509C28.8411 5.22509 29.2814 4.89977 29.4322 4.48321H28.9045C28.7815 4.64587 28.5792 4.77282 28.2896 4.77282C27.881 4.77282 27.5636 4.50701 27.5319 4.12219H29.5076ZM27.5319 3.70959C27.5596 3.3565 27.8572 3.09863 28.246 3.09863C28.6506 3.09863 28.9323 3.36047 28.9482 3.70959H27.5319Z" fill="#29374A"/>
        <path d="M29.6876 4.70849C29.878 4.70055 30.0764 4.59344 30.0764 4.20068V2.70898H32.0164V5.18059H31.4769V3.19696H30.6041V4.21258C30.6041 4.89892 30.1994 5.20836 29.6797 5.19646L29.6876 4.70849Z" fill="#29374A"/>
        <path d="M33.4921 3.85949L34.6743 2.70898H34.0475L33.3929 3.34375L33.0239 3.7008V2.70898H33.016H32.5161H32.4844V5.18059H32.5161H33.016H33.0239V4.01818L33.3889 4.42681L34.0514 5.18059H34.6783L33.4921 3.85949Z" fill="#29374A"/>
        <path d="M36.8271 2.70581L36.7596 3.07477C36.5494 2.81689 36.1844 2.6582 35.8551 2.6582C35.8511 2.6582 35.8472 2.6582 35.8432 2.6582C35.8392 2.6582 35.8313 2.6582 35.8273 2.6582C35.4703 2.6582 35.1807 2.78912 34.9704 2.99939C34.9585 3.01129 34.9506 3.01922 34.9387 3.03113C34.9347 3.03906 34.9268 3.04303 34.9228 3.05096C34.7244 3.2771 34.6094 3.58654 34.6094 3.93963V3.9436V3.94757C34.6094 4.30065 34.7205 4.6101 34.9228 4.83623C34.9268 4.84417 34.9347 4.84814 34.9387 4.85607C34.9466 4.86797 34.9585 4.87591 34.9704 4.88781C35.1767 5.10204 35.4703 5.22899 35.8273 5.22899C35.8313 5.22899 35.8392 5.22899 35.8432 5.22899C35.8472 5.22899 35.8511 5.22899 35.8551 5.22899C36.1844 5.22899 36.5494 5.07427 36.7596 4.81243V5.18139H37.3071V5.17742V2.70978V2.70581H36.8271ZM35.9662 4.73309C35.498 4.73309 35.1648 4.4038 35.1648 3.9436C35.1648 3.4834 35.498 3.15411 35.9662 3.15411C36.4264 3.15411 36.7557 3.4953 36.7557 3.9436C36.7557 4.3919 36.4264 4.73309 35.9662 4.73309Z" fill="#29374A"/>
        <path d="M37.7812 2.70581V2.70978V6.28825V6.29222H38.3287V4.81243C38.539 5.0703 38.904 5.22899 39.2333 5.22899C39.2372 5.22899 39.2412 5.22899 39.2452 5.22899C39.2491 5.22899 39.2571 5.22899 39.261 5.22899C39.6181 5.22899 39.9077 5.09807 40.118 4.88781C40.1299 4.87591 40.1378 4.86797 40.1497 4.85607C40.1537 4.84814 40.1616 4.84417 40.1656 4.83623C40.3639 4.6101 40.479 4.30065 40.479 3.94757V3.9436V3.93963C40.479 3.58654 40.3679 3.2771 40.1656 3.05096C40.1616 3.04303 40.1537 3.03906 40.1497 3.03113C40.1418 3.01922 40.1299 3.01129 40.118 2.99939C39.9117 2.78516 39.6181 2.6582 39.261 2.6582C39.2571 2.6582 39.2491 2.6582 39.2452 2.6582C39.2412 2.6582 39.2372 2.6582 39.2333 2.6582C38.904 2.6582 38.539 2.81293 38.3287 3.07477L38.2613 2.70581H37.7812ZM38.3327 3.9436C38.3327 3.4953 38.662 3.15411 39.1222 3.15411C39.5903 3.15411 39.9236 3.4834 39.9236 3.9436C39.9236 4.4038 39.5903 4.73309 39.1222 4.73309C38.662 4.73309 38.3327 4.3919 38.3327 3.9436Z" fill="#29374A"/>
        <path d="M44.5508 3.63812V5.18139H44.0073V3.77697C44.0073 3.32867 43.7771 3.13031 43.4717 3.13031C43.1583 3.13031 42.9202 3.34057 42.9202 3.77697V5.18139H42.3767V3.77697C42.3767 3.32867 42.1426 3.13031 41.8491 3.13031C41.5277 3.13031 41.2897 3.34057 41.2897 3.77697V5.18139H40.7422V2.70978H41.2222L41.2857 3.06683C41.4285 2.81293 41.6666 2.6582 42.0316 2.6582C42.3648 2.6582 42.6385 2.79706 42.7853 3.06683C42.948 2.81293 43.2178 2.6582 43.6185 2.6582C44.1739 2.6582 44.5508 3.03113 44.5508 3.63812Z" fill="#29374A"/>
        <path d="M25.9614 7.05762H26.3978V9.48162H25.9177V7.87487L24.6006 9.48162H24.1562V7.05762H24.6363V8.69213L25.9614 7.05762Z" fill="#29374A"/>
        <path d="M28.5574 7.05762H29.0374V9.48162H28.5574V8.60882H27.3394V9.48162H26.8594V7.05762H27.3394V8.10101H28.5574V7.05762Z" fill="#29374A"/>
        <path d="M43.5901 9.47771V7.48218H42.8125V7.05371H44.8874V7.48218H44.1177V9.47771H43.5901Z" fill="#29374A"/>
        <path d="M34.0614 8.44586C34.0614 8.37048 34.0614 8.2951 34.0574 8.22766C33.9979 7.44214 33.502 7.01367 32.8276 7.01367C32.1095 7.01367 31.5938 7.55719 31.5938 8.27526C31.5938 9.02905 32.1333 9.52892 32.8672 9.52892C33.4108 9.52892 33.8392 9.21154 33.99 8.80291H33.4742C33.3552 8.96557 33.1529 9.08459 32.8712 9.08459C32.4705 9.08459 32.1611 8.82275 32.1293 8.44586H34.0614ZM32.1293 8.04119C32.1571 7.69604 32.4507 7.4461 32.8315 7.4461C33.2283 7.4461 33.506 7.70398 33.5179 8.04119H32.1293Z" fill="#29374A"/>
        <path d="M42.6551 8.44683C42.6551 8.37145 42.6551 8.29608 42.6512 8.22863C42.5917 7.44311 42.0958 7.01465 41.4213 7.01465C40.7032 7.01465 40.1875 7.55816 40.1875 8.27624C40.1875 9.03002 40.727 9.5299 41.461 9.5299C42.0045 9.5299 42.433 9.21252 42.5837 8.80389H42.068C41.949 8.96655 41.7466 9.08556 41.465 9.08556C41.0643 9.08556 40.7548 8.82372 40.7231 8.44683H42.6551ZM40.7191 8.04217C40.7469 7.69702 41.0405 7.44708 41.4213 7.44708C41.818 7.44708 42.0958 7.70495 42.1077 8.04217H40.7191Z" fill="#29374A"/>
        <path d="M39.2996 7.05762H39.7796V9.48162H39.2996V8.60882H38.0816V9.48162H37.6016V7.05762H38.0816V8.10101H39.2996V7.05762Z" fill="#29374A"/>
        <path d="M30.176 9.47771V7.48218H29.3984V7.05371H31.4733V7.48218H30.7037V9.47771H30.176Z" fill="#29374A"/>
        <path d="M34.5234 7.03003V7.034V10.545V10.549H35.059V9.09698C35.2653 9.35088 35.6263 9.50561 35.9477 9.50561C35.9517 9.50561 35.9556 9.50561 35.9596 9.50561C35.9636 9.50561 35.9715 9.50561 35.9755 9.50561C36.3246 9.50561 36.6102 9.37865 36.8165 9.16839C36.8245 9.16045 36.8364 9.14855 36.8443 9.14062C36.8483 9.13268 36.8562 9.12872 36.8602 9.12078C37.0585 8.89861 37.1656 8.5971 37.1656 8.24798V8.24401V8.24005C37.1656 7.89489 37.0546 7.58941 36.8602 7.36725C36.8562 7.35931 36.8483 7.35535 36.8443 7.34741C36.8364 7.33551 36.8245 7.32757 36.8165 7.31964C36.6142 7.10937 36.3285 6.98242 35.9755 6.98242C35.9715 6.98242 35.9636 6.98242 35.9596 6.98242C35.9556 6.98242 35.9517 6.98242 35.9477 6.98242C35.6263 6.98242 35.2693 7.13318 35.059 7.39105L34.9955 7.03003H34.5234ZM35.067 8.24401C35.067 7.80365 35.3883 7.4704 35.8445 7.4704C36.3008 7.4704 36.6301 7.79175 36.6301 8.24401C36.6301 8.69628 36.3047 9.01763 35.8445 9.01763C35.3883 9.0216 35.067 8.68438 35.067 8.24401Z" fill="#29374A"/>
        <path d="M26.3819 11.3975V13.8215H25.8384V11.8259H24.6998V13.8215H24.1562V11.3975H26.3819Z" fill="#29374A"/>
        <path d="M39.5895 12.1512C40.1608 12.1512 40.5456 12.4686 40.5456 12.9883C40.5456 13.512 40.1569 13.8254 39.5895 13.8254H38.5938V11.4014H39.0738V12.1512H39.5895ZM39.5261 13.3691C39.8196 13.3691 40.0656 13.2382 40.0656 12.9883C40.0656 12.7344 39.8236 12.5995 39.5261 12.5995H39.0698V13.3691H39.5261Z" fill="#29374A"/>
        <path d="M28.9512 11.4089L28.8877 11.766C28.6815 11.5121 28.3244 11.3613 28.003 11.3613C27.9991 11.3613 27.9951 11.3613 27.9911 11.3613C27.9872 11.3613 27.9792 11.3613 27.9753 11.3613C27.6262 11.3613 27.3445 11.4883 27.1382 11.6946C27.1302 11.7025 27.1183 11.7144 27.1104 11.7223C27.1064 11.7303 27.0985 11.7343 27.0945 11.7422C26.9001 11.9644 26.7891 12.2659 26.7891 12.611V12.615V12.619C26.7891 12.9641 26.9001 13.2656 27.0945 13.4878C27.0985 13.4957 27.1064 13.4997 27.1104 13.5076C27.1183 13.5195 27.1302 13.5275 27.1382 13.5354C27.3405 13.7417 27.6262 13.8686 27.9753 13.8686C27.9792 13.8686 27.9872 13.8686 27.9911 13.8686C27.9951 13.8686 27.9991 13.8686 28.003 13.8686C28.3244 13.8686 28.6815 13.7179 28.8877 13.464V13.821H29.4233V13.8171V11.4089V11.405H28.9512V11.4089ZM28.1102 13.3886C27.6539 13.3886 27.3286 13.0673 27.3286 12.615C27.3286 12.1627 27.6539 11.8414 28.1102 11.8414C28.5624 11.8414 28.8838 12.1746 28.8838 12.615C28.8838 13.0554 28.5585 13.3886 28.1102 13.3886Z" fill="#29374A"/>
        <path d="M29.9688 11.3738V11.3777V14.8888V14.8927H30.5043V13.4407C30.7106 13.6946 31.0716 13.8494 31.393 13.8494C31.397 13.8494 31.4009 13.8494 31.4049 13.8494C31.4089 13.8494 31.4168 13.8494 31.4208 13.8494C31.7699 13.8494 32.0555 13.7224 32.2618 13.5121C32.2698 13.5042 32.2817 13.4923 32.2896 13.4844C32.2936 13.4764 32.3015 13.4725 32.3055 13.4645C32.5038 13.2424 32.611 12.9409 32.611 12.5917V12.5878V12.5838C32.611 12.2386 32.4999 11.9332 32.3055 11.711C32.3015 11.7031 32.2936 11.6991 32.2896 11.6912C32.2817 11.6793 32.2698 11.6713 32.2618 11.6634C32.0595 11.4531 31.7739 11.3262 31.4208 11.3262C31.4168 11.3262 31.4089 11.3262 31.4049 11.3262C31.4009 11.3262 31.397 11.3262 31.393 11.3262C31.0716 11.3262 30.7146 11.4769 30.5043 11.7348L30.4409 11.3738H29.9688ZM30.5083 12.5878C30.5083 12.1474 30.8296 11.8141 31.2859 11.8141C31.7421 11.8141 32.0714 12.1355 32.0714 12.5878C32.0714 13.04 31.7461 13.3614 31.2859 13.3614C30.8336 13.3653 30.5083 13.0281 30.5083 12.5878Z" fill="#29374A"/>
        <path d="M35.8165 13.3772C36.0069 13.3693 36.2053 13.2621 36.2053 12.8733V11.3936H38.1294V13.8453H37.5938V11.8776H36.7289V12.8852C36.7289 13.5637 36.3282 13.8731 35.8125 13.8612L35.8165 13.3772Z" fill="#29374A"/>
        <path d="M34.2348 11.3457C33.489 11.3457 32.9375 11.8813 32.9375 12.6073C32.9375 13.3333 33.489 13.8689 34.2348 13.8689C34.9846 13.8689 35.5321 13.3373 35.5321 12.6073C35.5321 11.8853 34.9846 11.3457 34.2348 11.3457ZM34.2348 13.3849C33.7944 13.3849 33.4691 13.0556 33.4691 12.6073C33.4691 12.163 33.7944 11.8297 34.2348 11.8297C34.6791 11.8297 35.0005 12.159 35.0005 12.6073C35.0005 13.0556 34.6791 13.3849 34.2348 13.3849Z" fill="#29374A"/>
    </symbol>
    <symbol id="samsungpay" width="48" height="16" viewBox="0 0 48 16" fill="none" xmlns="http://www.w3.org/2000/svg">
        <path d="M47.2938 6.30611C47.1444 5.16943 46.7271 4.13423 45.9969 3.37645C45.2219 2.66247 44.1631 2.25437 43.0006 2.10837C41.8829 1.96236 41.1221 2.00616 41.1221 2.00616C41.1221 2.00616 40.362 1.97696 39.2436 2.10837C38.081 2.25437 37.0223 2.66247 36.2473 3.37645C35.5171 4.13423 35.0997 5.16943 34.9504 6.30611C34.8011 7.39898 34.831 8.14289 34.831 8.14289C34.831 8.14289 34.8011 8.88607 34.9355 9.97968C35.0848 11.1164 35.5022 12.1516 36.2324 12.9093C37.0074 13.6233 38.0661 14.0314 39.2286 14.1774C40.3463 14.3234 41.1072 14.2796 41.1072 14.2796C41.1072 14.2796 41.8672 14.3088 42.9857 14.1774C44.1482 14.0314 45.2069 13.6233 45.9819 12.9093C46.7121 12.1516 47.1295 11.1164 47.2788 9.97968C47.4282 8.8868 47.3834 8.14289 47.3834 8.14289C47.3834 8.14289 47.4431 7.39971 47.2938 6.30611Z" fill="#1E4BC6"/>
        <path d="M37.1492 6.35034H38.2818C38.461 6.35034 38.6096 6.37954 38.7589 6.43794C38.9083 6.49635 39.027 6.58395 39.1315 6.68543C39.236 6.7869 39.3256 6.90371 39.3846 7.04972C39.4443 7.19573 39.4742 7.34101 39.4742 7.50162C39.4742 7.66222 39.4443 7.8075 39.3846 7.95351C39.3249 8.09952 39.2353 8.21633 39.1315 8.3178C39.0277 8.41928 38.8933 8.50761 38.7589 8.56529C38.6245 8.62369 38.461 8.65289 38.2818 8.65289H37.7749V9.57128H37.1634V6.34961H37.1484L37.1492 6.35034ZM37.7607 6.90444V8.08492H38.2378C38.3274 8.08492 38.417 8.07032 38.4909 8.04112C38.5648 8.01191 38.6253 7.96811 38.685 7.90971C38.7447 7.85131 38.7746 7.7929 38.8045 7.7199C38.8343 7.64689 38.8493 7.57389 38.8493 7.48701C38.8493 7.40014 38.8343 7.32641 38.8045 7.25413C38.7746 7.18113 38.7298 7.12272 38.685 7.06432C38.6253 7.00592 38.5655 6.96211 38.4909 6.93291C38.4162 6.90371 38.3266 6.88911 38.2378 6.88911H37.7607V6.90371V6.90444ZM40.8913 9.57201C40.7271 9.57201 40.5785 9.54281 40.4142 9.48441C40.2649 9.42601 40.1163 9.3384 39.9968 9.23692C39.8774 9.12012 39.7736 8.98871 39.6989 8.82883C39.6243 8.66895 39.5795 8.47914 39.5795 8.27473C39.5795 8.07032 39.6093 7.88124 39.684 7.72063C39.7587 7.56002 39.8632 7.42934 39.9819 7.31253C40.1006 7.19573 40.25 7.12272 40.3993 7.06505C40.5635 7.00665 40.7121 6.97745 40.8913 6.97745C41.0705 6.97745 41.234 7.00665 41.3684 7.06505C41.5177 7.12345 41.6365 7.21106 41.741 7.31253V6.97745H42.3525V9.57201H41.741V9.20772C41.6514 9.32453 41.5177 9.41213 41.3684 9.48441C41.2191 9.54281 41.0705 9.57201 40.8913 9.57201ZM40.9958 9.03251C41.1153 9.03251 41.2191 9.01791 41.3087 8.97411C41.3983 8.93031 41.4879 8.8865 41.5618 8.8135C41.6357 8.7405 41.6813 8.66749 41.726 8.58062C41.7708 8.49301 41.7858 8.39081 41.7858 8.28933C41.7858 8.18785 41.7708 8.08492 41.726 7.99804C41.6813 7.91044 41.6365 7.82283 41.5618 7.76516C41.4871 7.69216 41.4125 7.64835 41.3087 7.60455C41.2042 7.54615 41.0996 7.53155 40.9958 7.53155C40.8921 7.53155 40.7868 7.54615 40.683 7.58995C40.5785 7.63375 40.5038 7.67756 40.4299 7.75056C40.356 7.82356 40.2955 7.89657 40.2656 7.98344C40.2208 8.07105 40.2059 8.17325 40.2059 8.27473C40.2059 8.37621 40.2208 8.47841 40.2656 8.56602C40.3104 8.65362 40.3702 8.74123 40.4299 8.81423C40.5046 8.88723 40.5942 8.93104 40.683 8.97484C40.7726 9.00404 40.8771 9.03324 40.9958 9.03324M43.2021 6.99278L43.9473 8.75656L44.6327 6.99278H45.2741L43.7091 10.7532H43.0827L43.6344 9.45594L42.5608 6.99278H43.2021Z" fill="white"/>
        <path d="M28.1612 5.94141V10.2998H26.5514L25.4487 6.71379H25.4188L25.4785 10.2998H24.375V5.94141H26.0445L27.0883 9.39596H27.1032L27.0435 5.94141H28.1612Z" fill="#1E4BC6"/>
        <path d="M4.99219 10.3436L5.82692 5.94141H7.82492L8.65965 10.3436H7.4516L6.84085 6.3349H6.82592L6.19949 10.3436H4.99219Z" fill="#1E4BC6"/>
        <path d="M14.4735 5.94141L14.578 10.3436H13.4454L13.4155 6.3787H13.3857L12.6405 10.3436H11.4922L10.7471 6.3787H10.7172L10.6873 10.3436H9.55469L9.65847 5.94141H11.5071L12.0589 9.30836H12.0738L12.6405 5.94141H14.4735Z" fill="#1E4BC6"/>
        <path d="M21.5259 9.67363C21.8388 9.67363 21.9433 9.46922 21.9582 9.35314C21.9732 9.30934 21.9732 9.23633 21.9732 9.17866V5.94238H23.1207V9.10565C23.1207 9.19326 23.1058 9.35314 23.1058 9.39694C23.0312 10.2131 22.3607 10.4898 21.5252 10.4898C20.6897 10.4898 20.0342 10.227 19.9602 9.39694C19.9602 9.35314 19.9453 9.19253 19.9453 9.10565V5.94238H21.0929V9.20713C21.0929 9.26553 21.0929 9.32394 21.1078 9.38234C21.1228 9.46995 21.2123 9.67363 21.5252 9.67363" fill="#1E4BC6"/>
        <path d="M3.08684 9.09078C3.13164 9.19298 3.11671 9.33826 3.10177 9.41126C3.05698 9.55727 2.96738 9.70255 2.65454 9.70255C2.37157 9.70255 2.20731 9.54194 2.20731 9.30906V8.88636H1V9.22145C1 10.2129 1.78994 10.5041 2.63961 10.5041C3.48928 10.5041 4.13064 10.2275 4.23442 9.49814C4.29415 9.11925 4.24935 8.87176 4.23442 8.76956C4.04029 7.85117 2.32602 7.57448 2.20731 7.04958C2.19237 6.96197 2.19237 6.87437 2.20731 6.8167C2.23717 6.67069 2.3417 6.52541 2.62467 6.52541C2.89272 6.52541 3.04204 6.68602 3.04204 6.9189V7.19559H4.15975V6.8897C4.15975 5.92751 3.28022 5.78223 2.63886 5.78223C1.83399 5.78223 1.1777 6.04431 1.05898 6.75902C1.02912 6.94883 1.02912 7.12331 1.07392 7.35693C1.25311 8.27459 2.86285 8.5228 3.08609 9.09151" fill="#1E4BC6"/>
        <path d="M17.7445 9.09097C17.7893 9.19317 17.7743 9.32385 17.7594 9.41145C17.7295 9.55746 17.625 9.70274 17.3271 9.70274C17.0292 9.70274 16.8799 9.54213 16.8799 9.30925V8.88655H15.6875V9.22164C15.6875 10.1984 16.4774 10.4897 17.3122 10.4897C18.1469 10.4897 18.7883 10.2269 18.8921 9.49833C18.9518 9.11944 18.907 8.87195 18.8921 8.78435C18.6979 7.86596 17.0135 7.60387 16.8948 7.09357C16.8649 7.00597 16.8799 6.91836 16.8948 6.86069C16.9247 6.71468 17.0292 6.5694 17.2972 6.5694C17.5653 6.5694 17.7146 6.73001 17.7146 6.96289V7.23958H18.8323V6.93369C18.8323 5.9861 17.9528 5.84082 17.3264 5.84082C16.5364 5.84082 15.8801 6.0883 15.7614 6.80302C15.7316 6.99283 15.7166 7.16731 15.7763 7.38632C15.9399 8.27551 17.5205 8.52299 17.7437 9.0917" fill="#1E4BC6"/>
        <path d="M30.9315 9.6294C31.2593 9.6294 31.3638 9.42498 31.3937 9.30891C31.4086 9.2651 31.4086 9.1921 31.4086 9.1483V8.50732H30.9464V7.86561H32.5412V9.04609C32.5412 9.1337 32.5412 9.1921 32.5263 9.33738C32.4516 10.139 31.7364 10.4303 30.9315 10.4303C30.1266 10.4303 29.4255 10.139 29.3509 9.33738C29.3359 9.19137 29.3359 9.13297 29.3359 9.04609V7.19471C29.3359 7.1217 29.3509 6.97642 29.3509 6.90342C29.4554 6.07263 30.1259 5.81055 30.9315 5.81055C31.7371 5.81055 32.4375 6.07263 32.5114 6.90342C32.5263 7.03483 32.5263 7.19471 32.5263 7.19471V7.34071H31.3937V7.09323C31.3937 7.09323 31.3937 6.99102 31.3787 6.91802C31.3638 6.81581 31.2742 6.59753 30.9315 6.59753C30.5888 6.59753 30.5141 6.81581 30.4843 6.91802C30.4693 6.97642 30.4693 7.04943 30.4693 7.12243V9.1337C30.4693 9.1921 30.4693 9.2505 30.4843 9.29431C30.4843 9.44032 30.6037 9.6294 30.9315 9.6294Z" fill="#1E4BC6"/>
    </symbol>
    <symbol id="close" width="14" height="14" viewBox="0 0 14 14" fill="none" xmlns="http://www.w3.org/2000/svg">
        <rect x="13.2891" width="1" height="18" transform="rotate(45 13.2891 0)" fill="#1D1D1B"/>
        <rect x="13.9961" y="12.7275" width="1" height="18" transform="rotate(135 13.9961 12.7275)" fill="#1D1D1B"/>
    </symbol>
    <symbol id="cart"  width="14" height="19" viewBox="0 0 14 19" fill="none" xmlns="http://www.w3.org/2000/svg">
        <path d="M0.5 5.5H13.5V17C13.5 17.8284 12.8284 18.5 12 18.5H2C1.17157 18.5 0.5 17.8284 0.5 17V5.5Z" stroke="#1D1D1B" />
        <path d="M3.5 4C3.5 2.067 5.067 0.5 7 0.5C8.933 0.5 10.5 2.067 10.5 4V5.5H3.5V4Z" stroke="#1D1D1B" />
    </symbol>
    <symbol id="search" width="17" height="17" viewBox="0 0 17 17" fill="none" xmlns="http://www.w3.org/2000/svg">
        <path fill-rule="evenodd" clip-rule="evenodd" d="M12.6674 13.3875C9.66705 16.0172 5.0991 15.9011 2.23719 13.0392C-0.745729 10.0563 -0.745729 5.22009 2.23719 2.23718C5.2201 -0.745727 10.0564 -0.745727 13.0393 2.23718C15.9012 5.0991 16.0173 9.66707 13.3875 12.6674L17 16.2799L16.2799 17L12.6674 13.3875ZM12.3053 12.3329C9.71902 14.9043 5.53792 14.8997 2.95733 12.3191C0.372133 9.73392 0.372133 5.5425 2.95733 2.95732C5.54252 0.372132 9.73394 0.372132 12.3191 2.95732C14.8997 5.5379 14.9043 9.719 12.3329 12.3053L12.3053 12.3329Z" fill="#1D1D1B" />
    </symbol>
    <symbol id="smallburger" width="15" height="6" viewBox="0 0 15 6" fill="none" xmlns="http://www.w3.org/2000/svg">
        <rect x="0.523438" width="14" height="1" fill="#1D1D1B" />
        <rect x="0.523438" y="5" width="10" height="1" fill="#1D1D1B" />
    </symbol>
    <symbol id="burger" width="19" height="11" viewBox="0 0 19 11" fill="none" xmlns="http://www.w3.org/2000/svg">
        <rect y="10" width="14" height="1" fill="#1D1D1B"/>
        <rect width="19" height="1" fill="#1D1D1B"/>
        <rect y="5" width="19" height="1" fill="#1D1D1B"/>
    </symbol>
    <symbol id="backarrow" width="12" height="13" viewBox="0 0 12 13" fill="none" xmlns="http://www.w3.org/2000/svg">
        <path d="M6.5 1L1.00009 6.49991L6.5 11.9998" stroke="#1D1D1B"/>
    </symbol>
    <symbol id="downarrow" width="13" height="12" viewBox="0 0 13 12" fill="none" xmlns="http://www.w3.org/2000/svg">
        <path d="M12 6.5L6.50009 1.00009L1.00018 6.5" stroke="#1D1D1B"/>
    </symbol>
    <symbol id="remove" width="10" height="10" viewBox="0 0 10 10" fill="none" xmlns="http://www.w3.org/2000/svg">
        <rect width="1" height="11" transform="matrix(0.707105 0.707108 -0.707105 0.707108 8.64844 0.611328)" fill="#1D1D1B"/>
        <rect width="1" height="11" transform="matrix(-0.707105 0.707108 -0.707105 -0.707108 9.35156 8.38867)" fill="#1D1D1B"/>
    </symbol>
    <symbol id="close" width="44" height="44" viewBox="0 0 44 44" fill="none" xmlns="http://www.w3.org/2000/svg">
        <circle cx="22" cy="22" r="22" fill="white"/>
        <rect x="28.0117" y="15.2822" width="1" height="18" transform="rotate(45 28.0117 15.2822)" fill="#1D1D1B"/>
        <rect x="28.7188" y="28.0107" width="1" height="18" transform="rotate(135 28.7188 28.0107)" fill="#1D1D1B"/>
    </symbol>
    <symbol id="trash" width="20" height="20" viewBox="0 0 20 20" fill="none" xmlns="http://www.w3.org/2000/svg">
        <path d="M3.5 3.5H16.5V18C16.5 18.8284 15.8284 19.5 15 19.5H5C4.17157 19.5 3.5 18.8284 3.5 18V3.5Z" stroke="#1D1D1B"/>
        <rect y="3" width="20" height="1" fill="#1D1D1B"/>
        <rect x="8" y="8" width="1" height="8" fill="#1D1D1B"/>
        <rect x="11" y="8" width="1" height="8" fill="#1D1D1B"/>
        <path d="M5 3.5L6.69976 1.37531C6.88953 1.13809 7.17684 1 7.48062 1H12.5194C12.8232 1 13.1105 1.13809 13.3002 1.3753L15 3.5" stroke="#1D1D1B"/>
    </symbol>
    <symbol id="minus" width="32" height="32" viewBox="0 0 32 32" fill="none" xmlns="http://www.w3.org/2000/svg">
        <rect width="32" height="32" fill="#FAFAFA"/>
        <path d="M8 16H26" stroke="#1D1D1B"/>
    </symbol>
    <symbol id="plus" width="32" height="32" viewBox="0 0 32 32" fill="none" xmlns="http://www.w3.org/2000/svg">
        <rect width="32" height="32" fill="#FAFAFA"/>
        <path d="M7 16H25" stroke="#1D1D1B"/>
        <path d="M16 7L16 25" stroke="#1D1D1B"/>
    </symbol>
    <symbol id="show" width="13" height="12" viewBox="0 0 13 12" fill="none" xmlns="http://www.w3.org/2000/svg">
        <path d="M1 5.5L6.49991 10.9999L11.9998 5.5" stroke="#1D1D1B"/>
    </symbol>
    <symbol id="top" width="8" height="20" viewBox="0 0 8 20" fill="none" xmlns="http://www.w3.org/2000/svg">
        <path d="M4.35355 1.08102C4.15829 0.885756 3.84171 0.885756 3.64645 1.08102L0.464465 4.263C0.269203 4.45826 0.269203 4.77484 0.464465 4.9701C0.659728 5.16537 0.97631 5.16537 1.17157 4.9701L4 2.14168L6.82843 4.9701C7.02369 5.16537 7.34027 5.16537 7.53553 4.9701C7.7308 4.77484 7.7308 4.45826 7.53553 4.263L4.35355 1.08102ZM4.5 19.4346L4.5 1.43457L3.5 1.43457L3.5 19.4346L4.5 19.4346Z" fill="#1D1D1B"/>
    </symbol>

</svg>