<svg width="33" height="57" viewBox="0 0 33 57" fill="none" xmlns="http://www.w3.org/2000/svg">
<g id="Group">
<g id="Group_2">
<path id="Vector" d="M31.7144 56.5004H1.49219V19.3004L6.72676 8.40039H26.3811L31.7144 19.3004V56.5004Z" stroke="#D71379" stroke-miterlimit="10"/>
<path id="Vector_2" d="M16.6053 16.1004C17.7508 16.1004 18.6794 15.1602 18.6794 14.0004C18.6794 12.8406 17.7508 11.9004 16.6053 11.9004C15.4598 11.9004 14.5312 12.8406 14.5312 14.0004C14.5312 15.1602 15.4598 16.1004 16.6053 16.1004Z" stroke="#D71379" stroke-miterlimit="10"/>
</g>
<path id="Vector_3" d="M16.6016 11.9001C16.6016 12.4001 16.7003 12.8001 16.8979 13.1001C18.1818 14.9001 22.5275 14.0001 26.7744 11.0001C31.0213 8.00012 33.3917 4.20012 32.1077 2.40012C30.8238 0.600119 26.4781 1.50012 22.2312 4.50012C20.5522 5.70012 19.1695 7.00012 18.1818 8.30012" stroke="#D71379" stroke-miterlimit="10"/>
</g>
</svg>
