<svg width="62" height="58" viewBox="0 0 62 58" fill="none" xmlns="http://www.w3.org/2000/svg">
<path d="M31.7 53.8H47.9V21.1L49.8 23.8L57.9 18.3L48.4 4.5H38.4C37.5 7.4 34.8 9.4 31.7 9.4C28.5 9.4 25.9 7.3 25 4.5H15L5.5 18.3L13.6 23.8L15.5 21.1V53.8H31.7Z" stroke="#D71379" stroke-width="0.9867" stroke-miterlimit="10" stroke-linecap="round" stroke-linejoin="round"/>
<path d="M22.6016 4.5C23.5016 8.7 27.2016 11.9 31.7016 11.9C36.2016 11.9 39.9016 8.7 40.8016 4.5" stroke="#D71379" stroke-width="0.9867" stroke-miterlimit="10" stroke-linecap="round" stroke-linejoin="round"/>
<path fill-rule="evenodd" clip-rule="evenodd" d="M34.7765 27.4899L35.3446 30.1123H34.2359L34.7765 27.4899ZM39.9801 26.1592H39.6553V26.0624L40.4443 26.0603V26.0624C41.0276 26.0555 41.8 26.0455 41.9782 26.0651L41.9861 27.2159C41.8836 27.2289 41.9039 27.2159 41.8994 27.1032C41.8935 26.9164 41.8566 26.7318 41.79 26.557C41.7067 26.337 41.5985 26.1462 41.3222 26.1471L40.6207 26.154L40.6289 28.9271L41.0434 28.9325C41.3488 28.9307 41.3946 28.6109 41.4212 28.3665C41.4316 28.2697 41.4064 28.2992 41.4619 28.2658C41.5173 28.2878 41.5088 28.2203 41.5094 28.349L41.5128 29.5945C41.5128 29.7226 41.5206 29.6547 41.4658 29.678C41.414 29.6478 41.4428 29.6994 41.4264 29.5963C41.4206 29.5595 41.4209 29.5122 41.4146 29.4715C41.3388 28.9744 41.1343 28.9829 40.6295 29.0193L40.6371 31.7924H40.6925L41.2076 31.7906V31.7951H41.3397C41.6009 31.7951 41.7121 31.6227 41.8 31.3964C42.0039 30.8707 41.8146 30.6998 41.9973 30.7218L42 31.8729C41.9194 31.8823 41.5925 31.8862 41.2079 31.8874L39.6789 31.8922V31.8536V31.8512V31.7957H39.991L39.9801 26.1592ZM33.3996 26.1869H33.3023C33.1302 26.2122 33.0351 26.1142 32.8087 26.5679L32.1176 27.9291C32.0597 28.0436 32.1297 28.1618 32.1727 28.2983L33.2166 31.6321C33.2369 31.6935 33.2603 31.7539 33.2869 31.8129H33.4811C33.7011 31.7936 33.8256 31.7225 33.8838 31.4799C33.9459 31.2224 33.9914 30.9472 34.0414 30.6962L34.9859 26L35.1134 26.003L36.3628 31.8051H36.6873V31.9031L36.001 31.9055C35.9243 31.9055 35.8495 31.9055 35.7776 31.9055H35.3765V31.8084H35.5022C35.5158 31.8084 35.5301 31.8084 35.5443 31.8084H35.7013L35.368 30.2C35.1728 30.1931 34.3644 30.1765 34.2208 30.2139L33.899 31.8144H34.212V31.9124L33.3069 31.9154C33.1908 31.9154 33.0739 31.9154 32.963 31.9154L32.3166 31.9175V31.8175H32.63L31.6809 28.8141C31.6173 28.8707 31.4249 29.2517 31.4194 29.3488L31.4346 31.8205H31.7509V31.9184L30.4574 31.9226V31.8247H30.7855L30.7695 26.1956H30.4437V26.0986L31.7267 26.0943V26.1923H31.4188V29.1037C31.4825 29.0085 32.8263 26.3819 32.9036 26.1875H32.6109V26.0904H33.3993V26.1869H33.3996ZM29.9638 26.198H29.6426L29.6589 31.8259H29.9856V31.9236L28.6875 31.9278V31.8301H29.0172L29.0014 26.2014H28.6814V26.1046L29.8344 26.1007H29.9592H29.9638V26.198ZM25.5798 26.211H25.265V26.1133L26.0588 26.1106V26.1124H26.0819C26.7533 26.11 27.4539 26.0796 27.8524 26.8563C28.0342 27.2087 28.0421 27.9276 27.8802 28.2923C27.7051 28.6875 27.4115 28.9102 26.9503 29.054C27.216 29.193 27.3091 29.1285 27.6272 29.4504C28.1136 29.9423 27.9969 30.5298 27.9975 31.2779C27.9975 31.8651 28.2036 31.7819 28.2702 31.6698C28.329 31.5691 28.2775 31.4967 28.3684 31.4657C28.3987 31.5112 28.3987 31.5492 28.3778 31.6209C28.3568 31.6964 28.3188 31.7661 28.2668 31.8249C28.2147 31.8836 28.1499 31.9298 28.0773 31.96C28.0047 31.9902 27.9261 32.0036 27.8475 31.9992C27.7689 31.9947 27.6923 31.9726 27.6236 31.9344C27.053 31.6046 27.6236 30.3914 27.1664 29.5559C26.9827 29.221 26.747 29.0296 26.231 29.1122L26.2388 31.837L26.2525 31.8389H26.5712V31.9368L25.2753 31.941V31.8416H25.5904L25.5798 26.211ZM24.9716 26.2155H24.8435C24.5453 26.2643 24.515 26.2803 24.3635 26.601C24.1514 27.0444 23.9008 27.4945 23.6796 27.9475C23.619 28.0735 23.6905 28.2067 23.7326 28.3363L24.5895 31.069C24.628 31.1941 24.7832 31.7623 24.8526 31.8431H25.1698V31.941L23.8738 31.9453V31.8476H24.1871L23.2357 28.8334C23.1833 28.8988 22.9839 29.2768 22.9775 29.3759C22.9612 29.6246 22.9793 29.9501 22.9799 30.2073L22.9848 31.8491H23.3123V31.9468L22.0167 31.9501V31.8524H22.3436L22.3273 26.2234L22 26.2243V26.1266L23.153 26.1227H23.2842H23.296V26.22L22.9696 26.2212L22.9781 29.1251L24.465 26.2161H24.1777V26.1206L24.9716 26.1179V26.2146V26.2155ZM38.5099 31.8958L37.2215 31.9V31.8021H37.5491L37.5327 26.1601C37.0094 26.1516 36.7212 26.0567 36.5509 26.7584C36.5258 26.8624 36.507 27.1831 36.4803 27.2367H36.4234L36.4128 26.0862L39.2896 26.069L39.2977 27.2217C39.1559 27.2473 39.2493 27.1686 39.1732 26.8072C39.0217 26.0949 38.7463 26.1194 38.1733 26.161L38.1893 31.7994H38.509V31.8973L38.5099 31.8958ZM26.2294 26.198C26.6812 26.17 26.9297 26.2565 27.1082 26.5597C27.4379 27.1156 27.4379 28.1054 27.1058 28.6591C26.9324 28.9485 26.687 29.0489 26.227 29.0175V26.198H26.2294Z" fill="#D71379"/>
</svg>
