<svg width="62" height="58" viewBox="0 0 62 58" fill="none" xmlns="http://www.w3.org/2000/svg">
<path d="M59.4965 15.1894C59.4965 15.1894 54.9731 14.3829 50.4497 9.94746C45.9263 5.61278 40.2972 4.90713 36.5779 4.70552C32.8587 4.60471 24.1134 4.10068 23.2088 5.20955C22.3041 6.41923 23.0077 7.83052 24.7166 8.33455C26.4254 8.83858 35.4722 9.34262 35.4722 9.34262" stroke="#D71379" stroke-miterlimit="10" stroke-linecap="round" stroke-linejoin="round"/>
<path d="M59.4942 25.1693H50.95C50.95 25.1693 45.8235 25.7742 43.5115 20.5322C40.7975 14.6855 34.0626 13.4758 35.1684 10.0484C36.2741 6.62095 44.9188 11.7621 48.2359 15.8951" stroke="#D71379" stroke-miterlimit="10" stroke-linecap="round" stroke-linejoin="round"/>
<path d="M2.5 42.8105C2.5 42.8105 7.0234 43.617 11.5468 48.0525C16.0702 52.3872 21.6993 53.0928 25.4185 53.2944C29.1378 53.496 37.7825 54.0001 38.6872 52.7904C39.5919 51.5807 38.8882 50.1694 37.1794 49.6654C35.4705 49.1614 26.4237 48.6573 26.4237 48.6573" stroke="#D71379" stroke-miterlimit="10" stroke-linecap="round" stroke-linejoin="round"/>
<path d="M2.5 32.8308H11.0442C11.0442 32.8308 16.1707 32.226 18.4827 37.4679C21.1967 43.3147 27.9315 44.5244 26.8258 47.9518C25.7201 51.3792 17.0754 46.2381 13.7582 42.105" stroke="#D71379" stroke-miterlimit="10" stroke-linecap="round" stroke-linejoin="round"/>
<path d="M30.8431 40.3907C37.1164 40.3907 42.2019 35.2907 42.2019 28.9995C42.2019 22.7084 37.1164 17.6084 30.8431 17.6084C24.5699 17.6084 19.4844 22.7084 19.4844 28.9995C19.4844 35.2907 24.5699 40.3907 30.8431 40.3907Z" stroke="#D71379" stroke-miterlimit="10" stroke-linecap="round" stroke-linejoin="round"/>
<path d="M30.8438 17.6084V40.2898" stroke="#D71379" stroke-miterlimit="10" stroke-linecap="round" stroke-linejoin="round"/>
<path d="M29.2349 40.189C29.2349 40.189 25.5156 36.9632 25.5156 28.8987C25.5156 20.935 29.2349 17.6084 29.2349 17.6084" stroke="#D71379" stroke-miterlimit="10" stroke-linecap="round" stroke-linejoin="round"/>
<path d="M32.6562 40.189C32.6562 40.189 36.3755 36.9632 36.3755 28.8987C36.3755 20.935 32.6562 17.6084 32.6562 17.6084" stroke="#D71379" stroke-miterlimit="10" stroke-linecap="round" stroke-linejoin="round"/>
<path d="M19.5859 28.999H42.2029" stroke="#D71379" stroke-miterlimit="10" stroke-linecap="round" stroke-linejoin="round"/>
<path d="M39.6936 36.1568C37.8842 35.1487 35.0697 34.1406 30.8478 34.1406C26.827 34.1406 24.0125 35.0479 22.2031 35.9551" stroke="#D71379" stroke-miterlimit="10" stroke-linecap="round" stroke-linejoin="round"/>
<path d="M22.2969 22.2451C24.1062 23.2532 26.9208 24.2612 31.1426 24.2612C35.1634 24.2612 37.978 23.354 39.7873 22.4467" stroke="#D71379" stroke-miterlimit="10" stroke-linecap="round" stroke-linejoin="round"/>
</svg>
