<svg width="53" height="52" viewBox="0 0 53 52" fill="none" xmlns="http://www.w3.org/2000/svg">
<g id="Group">
<g id="Group_2">
<g id="Vector">
<path d="M9.90625 16.5004L26.6063 8.40039L43.3063 16.5004L26.6063 24.6004" fill="white"/>
<path d="M9.90625 16.5004L26.6063 8.40039L43.3063 16.5004L26.6063 24.6004" stroke="#D71379" stroke-miterlimit="10" stroke-linecap="round" stroke-linejoin="round"/>
</g>
<g id="Vector_2">
<path d="M25.6018 5L10.6018 12.3C9.90178 12.6 9.40178 13.2 9.20178 13.8C8.90178 14.5 8.90178 15.5 10.0018 16.5L26.7018 24.6C24.2018 22.1 26.7018 20.7 26.7018 20.7L43.4018 12.6" fill="white"/>
<path d="M25.6018 5L10.6018 12.3C9.90178 12.6 9.40178 13.2 9.20178 13.8C8.90178 14.5 8.90178 15.5 10.0018 16.5L26.7018 24.6C24.2018 22.1 26.7018 20.7 26.7018 20.7L43.4018 12.6" stroke="#D71379" stroke-miterlimit="10" stroke-linecap="round" stroke-linejoin="round"/>
</g>
<path id="Vector_3" d="M26.6063 16.7L9.90625 8.6L26.6063 0.5L43.3063 8.6L26.6063 16.7Z" fill="white" stroke="#D71379" stroke-miterlimit="10" stroke-linecap="round" stroke-linejoin="round"/>
<g id="Vector_4">
<path d="M43.3047 12.6002C43.3047 12.6002 45.7047 10.7002 43.3047 8.7002V12.6002Z" fill="white"/>
<path d="M43.3047 12.6002C43.3047 12.6002 45.7047 10.7002 43.3047 8.7002" stroke="#D71379" stroke-miterlimit="10" stroke-linecap="round" stroke-linejoin="round"/>
</g>
</g>
<g id="Group_3">
<g id="Group_4">
<g id="Group_5">
<path id="Vector_5" d="M21.303 50.7003V42.1003C21.303 42.1003 21.903 37.0003 16.703 34.6003C10.803 31.9003 9.60304 25.1003 6.20304 26.2003C2.80304 27.3003 7.80304 36.0003 12.003 39.3003" stroke="#D71379" stroke-miterlimit="10" stroke-linecap="round" stroke-linejoin="round"/>
<path id="Vector_6" d="M11.1984 50.7C11.1984 50.7 10.2984 46.2 5.99844 41.6C1.59844 37.1 0.898438 31.3 0.798438 27.6C0.598438 23.9 0.0984374 15.1 1.29844 14.2C2.49844 13.2 3.89844 14 4.39844 15.7C4.89844 17.4 5.49844 26.5 5.49844 26.5" stroke="#D71379" stroke-miterlimit="10" stroke-linecap="round" stroke-linejoin="round"/>
</g>
<g id="Group_6">
<path id="Vector_7" d="M31.3961 50.7003V42.1003C31.3961 42.1003 30.7961 37.0003 35.9961 34.6003C41.8961 31.9003 43.0961 25.1003 46.4961 26.2003C49.8961 27.3003 44.7961 36.0003 40.5961 39.4003" stroke="#D71379" stroke-miterlimit="10" stroke-linecap="round" stroke-linejoin="round"/>
<path id="Vector_8" d="M41.5 50.7C41.5 50.7 42.4 46.2 46.7 41.6C51.1 37.1 51.8 31.3 51.9 27.6C52.1 23.9 52.6 15.1 51.4 14.2C50.2 13.2 48.8 14 48.3 15.7C47.8 17.4 47.2 26.5 47.2 26.5" stroke="#D71379" stroke-miterlimit="10" stroke-linecap="round" stroke-linejoin="round"/>
</g>
</g>
</g>
</g>
</svg>
