<svg width="49" height="55" viewBox="0 0 49 55" fill="none" xmlns="http://www.w3.org/2000/svg">
<g id="Group">
<g id="Group_2">
<path id="Vector" d="M24.5 53.5998L0.5 41.9998L24.5 30.2998L48.5 41.9998L24.5 53.5998Z" fill="white" stroke="#D71379" stroke-miterlimit="10" stroke-linecap="round" stroke-linejoin="round"/>
<path id="Vector_2" d="M24.5 47.8996L0.5 36.2996L24.5 24.5996L48.5 36.2996L24.5 47.8996Z" fill="white" stroke="#D71379" stroke-miterlimit="10" stroke-linecap="round" stroke-linejoin="round"/>
<path id="Vector_3" d="M24.5 42.3L0.5 30.6L24.5 19L48.5 30.6L24.5 42.3Z" fill="white" stroke="#D71379" stroke-miterlimit="10" stroke-linecap="round" stroke-linejoin="round"/>
</g>
<g id="Group_3">
<path id="Vector_4" d="M24.8 19.4C24.8 19.4 29.6 15.7 29.6 9.5C29.6 3.3 24.8 0.5 24.8 0.5C24.8 0.5 20 3.3 20 9.5C20 15.7 24.8 19.4 24.8 19.4Z" fill="white" stroke="#D71379" stroke-miterlimit="10" stroke-linecap="round" stroke-linejoin="round"/>
<path id="Vector_5" d="M24.7969 21.2999C24.7969 21.2999 29.0969 23.8999 33.7969 21.8999C38.4969 19.8999 39.1969 15.3999 39.1969 15.3999C39.1969 15.3999 35.5969 12.5999 30.7969 14.4999C26.0969 16.4999 24.7969 21.2999 24.7969 21.2999Z" fill="white" stroke="#D71379" stroke-miterlimit="10" stroke-linecap="round" stroke-linejoin="round"/>
<path id="Vector_6" d="M24.6969 21.2999C24.6969 21.2999 20.3969 23.8999 15.6969 21.8999C10.9969 19.8999 10.2969 15.3999 10.2969 15.3999C10.2969 15.3999 13.8969 12.5999 18.6969 14.4999C23.3969 16.4999 24.6969 21.2999 24.6969 21.2999Z" fill="white" stroke="#D71379" stroke-miterlimit="10" stroke-linecap="round" stroke-linejoin="round"/>
<path id="Vector_7" d="M24.6953 9.90039V29.6004" stroke="#D71379" stroke-miterlimit="10" stroke-linecap="round" stroke-linejoin="round"/>
<path id="Vector_8" d="M24.7969 21.3L31.7969 18.5" stroke="#D71379" stroke-miterlimit="10" stroke-linecap="round" stroke-linejoin="round"/>
<path id="Vector_9" d="M24.6 21.3L17.5 18.5" stroke="#D71379" stroke-miterlimit="10" stroke-linecap="round" stroke-linejoin="round"/>
</g>
</g>
</svg>
