<svg width="151" height="46" viewBox="0 0 151 46" fill="none" xmlns="http://www.w3.org/2000/svg">
<path fill-rule="evenodd" clip-rule="evenodd" d="M96.4626 11.4228L100.752 31.5277H92.3812L96.4626 11.4228ZM135.75 1.22016H133.297V0.478357L139.255 0.462181V0.478357C143.659 0.425206 149.49 0.348947 150.835 0.499155L150.895 9.32219C150.122 9.42156 150.275 9.32219 150.24 8.45791C150.196 7.0256 149.917 5.6106 149.415 4.27055C148.785 2.58359 147.969 1.12079 145.882 1.12772L140.586 1.18087L140.648 22.4412L143.778 22.4828C146.084 22.4689 146.429 20.0171 146.63 18.1429C146.708 17.4011 146.518 17.6276 146.937 17.3711C147.356 17.5398 147.292 17.0221 147.296 18.0089L147.321 27.5575C147.321 28.5397 147.381 28.0197 146.967 28.1977C146.576 27.9666 146.793 28.3617 146.669 27.5714C146.626 27.2895 146.628 26.9267 146.58 26.6147C146.008 22.804 144.464 22.8687 140.653 23.1483L140.71 44.4087H141.128L145.018 44.3948V44.4295H146.015C147.987 44.4295 148.827 43.1076 149.49 41.3721C151.03 37.3419 149.6 36.0316 150.979 36.2003L151 45.0257C150.391 45.0973 147.923 45.1273 145.02 45.1366L133.476 45.1736V44.8778V44.8593V44.4341H135.832L135.75 1.22016ZM86.0671 1.43276H85.3327C84.0333 1.62688 83.3149 0.875833 81.606 4.35374L76.3876 14.7898C75.9507 15.6679 76.4792 16.5738 76.804 17.6206L84.6853 43.1793C84.8383 43.6504 85.0155 44.1132 85.216 44.5658H86.6825C88.3434 44.4179 89.2836 43.8725 89.7229 42.0122C90.1919 40.0387 90.535 37.9289 90.9125 36.0039L98.0434 0L99.0065 0.023109L108.439 44.5057H110.889V45.2568L105.707 45.2752C105.129 45.2752 104.563 45.2752 104.021 45.2752H100.992V44.5311H101.942C102.045 44.5311 102.152 44.5311 102.26 44.5311H103.445L100.928 32.2001C99.4549 32.147 93.3512 32.0199 92.2669 32.3064L89.8373 44.5774H92.2005V45.3284L85.367 45.3515C84.4908 45.3515 83.6077 45.3515 82.7704 45.3515L77.8907 45.3677V44.6005H80.2562L73.091 21.5746C72.6106 22.0091 71.1579 24.93 71.1167 25.6742L71.2311 44.6236H73.6195V45.3746L63.8531 45.407V44.6559H66.3307L66.2095 1.49978H63.7502V0.755666L73.4365 0.723313V1.47436H71.1121V23.7954C71.5925 23.0651 81.7387 2.92792 82.322 1.43738H80.1121V0.693271H86.0648V1.43276H86.0671ZM60.1264 1.51826H57.7014L57.8249 44.6652H60.2911V45.4139L50.4904 45.4463V44.6975H52.9795L52.8605 1.54368H50.4447V0.801884L59.1495 0.771842H60.0921H60.1264V1.51826ZM27.0274 1.61763H24.6504V0.8689L30.6443 0.848102V0.861967H30.8182C35.8878 0.84348 41.177 0.610079 44.1854 6.56528C45.5581 9.26673 45.6175 14.7782 44.3959 17.5744C43.0736 20.604 40.8568 22.3118 37.3748 23.4141C39.3812 24.4794 40.0835 23.9849 42.4856 26.4529C46.1574 30.2243 45.2767 34.7283 45.2812 40.4639C45.2812 44.9656 46.8369 44.3278 47.3402 43.4681C47.784 42.6963 47.3951 42.1417 48.0814 41.9036C48.3102 42.2526 48.3102 42.5438 48.1524 43.0938C47.9938 43.6724 47.7073 44.2071 47.3142 44.6575C46.9212 45.1078 46.432 45.4621 45.8836 45.6936C45.3352 45.9251 44.7419 46.0277 44.1485 45.9936C43.5551 45.9596 42.9771 45.7898 42.4582 45.4971C38.1504 42.969 42.4582 33.6676 39.006 27.2617C37.6196 24.6943 35.8397 23.2269 31.9437 23.8601L32.0032 44.7507L32.1061 44.7645H34.5128V45.5156L24.7282 45.5479V44.7853H27.1074L27.0274 1.61763ZM22.4359 1.6523H21.4682C19.217 2.02666 18.9882 2.14914 17.8444 4.60794C16.243 8.00729 14.351 11.4575 12.6809 14.9308C12.2234 15.8967 12.7633 16.9181 13.0813 17.9118L19.551 38.8625C19.8416 39.8215 21.0129 44.1776 21.5368 44.7969H23.9321V45.5479L14.1474 45.5803V44.8316H16.5129L9.3294 21.7225C8.93363 22.224 7.42829 25.1218 7.38025 25.8821C7.25671 27.7886 7.39398 30.2844 7.39855 32.2556L7.43516 44.8431H9.9082V45.5918L0.125826 45.6173V44.8685H2.5943L2.47076 1.71238L0 1.71931V0.97058L8.70485 0.940538H9.69544H9.78467V1.68696L7.32077 1.6962L7.38483 23.9595L18.6108 1.65692H16.442V0.924362L22.4359 0.903564V1.64536V1.6523ZM124.65 45.2013L114.922 45.2337V44.4826H117.395L117.272 1.22709C113.321 1.16239 111.145 0.43445 109.86 5.81424C109.67 6.6115 109.528 9.0703 109.327 9.48164H108.896L108.816 0.660919L130.536 0.529197L130.598 9.3661C129.527 9.56252 130.232 8.95938 129.658 6.1886C128.514 0.727935 126.434 0.915118 122.108 1.23402L122.229 44.4618H124.643V45.2128L124.65 45.2013ZM31.9323 1.51826C35.3433 1.30335 37.2192 1.96658 38.5667 4.29135C41.0558 8.55266 41.0558 16.1417 38.5484 20.3868C37.2398 22.6053 35.3868 23.3748 31.914 23.1345V1.51826H31.9323Z" fill="#1D1D1B"/>
</svg>
